<svg xmlns="http://www.w3.org/2000/svg" viewBox="168 254 1066 246" fill="none">
  <path d="M 281.71 415.50 C266.82,424.02 253.70,430.97 252.56,430.93 C249.90,430.84 198.00,401.02 198.00,399.58 C198.00,398.99 206.89,393.18 217.75,386.68 C228.61,380.18 239.75,373.43 242.50,371.68 L 247.50 368.50 L 275.00 368.00 C306.42,367.43 308.01,367.06 316.01,358.38 C329.93,343.27 326.84,320.93 309.54,311.67 C305.56,309.53 304.67,309.49 244.50,309.00 C185.24,308.51 183.40,308.44 180.00,306.45 C178.08,305.32 175.49,302.89 174.25,301.05 C172.19,297.99 172.00,296.56 172.00,284.09 C172.00,268.83 173.06,265.31 178.82,261.37 C181.89,259.27 182.83,259.23 234.22,258.85 C300.80,258.36 311.97,258.80 322.19,262.31 C367.18,277.75 387.03,330.00 364.30,373.15 C356.66,387.67 345.19,398.85 330.21,406.39 C321.66,410.70 319.00,411.00 319.00,407.63 C319.00,403.89 315.34,400.00 311.83,400.00 C309.75,400.00 300.28,404.88 281.71,415.50 ZM 624.17 459.35 C621.74,461.54 601.90,461.78 600.12,459.64 C599.29,458.65 599.06,439.71 599.24,390.39 L 599.50 322.50 L 611.92 322.22 C625.73,321.90 625.96,322.00 625.98,328.35 L 626.00 332.21 L 629.54 329.10 C642.01,318.15 662.76,316.23 679.56,324.46 C699.62,334.29 710.62,359.11 706.01,384.11 C704.48,392.39 697.50,405.64 691.59,411.49 C681.67,421.31 669.74,425.58 654.39,424.82 C644.27,424.31 635.26,420.96 630.41,415.91 C628.88,414.31 627.26,413.00 626.81,413.00 C626.37,413.00 626.00,423.06 626.00,435.35 C626.00,455.72 625.84,457.84 624.17,459.35 ZM 455.80 459.80 C454.43,461.17 434.31,461.48 432.24,460.17 C431.24,459.54 430.97,445.01 430.94,391.53 C430.92,353.81 431.30,323.30 431.79,322.81 C432.27,322.33 438.03,322.06 444.58,322.22 L 456.50 322.50 L 456.80 327.25 C456.97,329.86 457.37,332.00 457.68,332.00 C458.00,332.00 460.06,330.37 462.26,328.39 C467.43,323.71 472.91,321.34 481.72,319.97 C503.11,316.66 523.27,327.09 532.33,346.18 C536.56,355.08 538.00,361.63 538.00,371.91 C538.00,383.00 536.59,389.33 532.05,398.56 C523.65,415.66 508.42,425.02 489.04,424.99 C476.61,424.97 468.09,421.89 461.56,415.07 C459.95,413.38 458.26,412.00 457.81,412.00 C457.37,412.00 457.00,422.48 457.00,435.30 C457.00,452.09 456.66,458.94 455.80,459.80 ZM 1005.76 423.86 C973.51,430.00 948.17,415.91 939.61,387.07 C937.63,380.40 937.50,365.45 939.36,358.50 C944.01,341.15 957.15,327.22 973.93,321.88 C983.28,318.90 1000.84,318.89 1010.07,321.86 C1028.13,327.66 1041.51,342.65 1045.49,361.50 C1047.39,370.49 1047.37,374.46 1045.39,383.30 C1040.88,403.47 1024.43,420.30 1005.76,423.86 ZM 1197.39 423.39 C1157.45,433.07 1124.00,409.87 1124.00,372.50 C1124.00,362.92 1125.86,355.13 1130.27,346.24 C1144.95,316.65 1190.68,309.92 1215.21,333.73 C1219.93,338.31 1225.31,348.61 1227.39,357.06 C1229.30,364.85 1229.55,379.05 1227.80,380.80 C1226.91,381.69 1216.96,382.00 1189.23,382.00 L 1151.87 382.00 L 1152.56 384.25 C1153.93,388.69 1155.93,391.71 1159.88,395.27 C1169.38,403.85 1187.90,404.24 1198.08,396.06 C1200.17,394.38 1202.25,393.00 1202.69,393.01 C1204.31,393.02 1222.36,404.54 1222.78,405.83 C1223.39,407.68 1214.51,415.94 1208.38,419.23 C1205.58,420.74 1200.64,422.61 1197.39,423.39 ZM 789.96 423.33 C778.22,426.56 761.35,426.02 750.85,422.06 C729.63,414.07 716.96,395.36 717.01,372.11 C717.07,345.31 735.66,323.50 761.48,319.93 C791.21,315.83 814.73,331.20 820.49,358.50 C822.29,367.06 822.46,379.14 820.80,380.80 C819.91,381.69 810.09,382.00 782.80,382.00 C746.37,382.00 746.00,382.02 746.00,384.05 C746.00,389.78 754.30,398.12 762.39,400.52 C771.76,403.31 781.78,402.13 788.12,397.51 C791.26,395.22 792.93,393.93 794.72,393.74 C796.89,393.51 799.23,394.91 804.60,398.09 L 805.35 398.54 C811.35,402.10 815.00,404.89 815.00,405.92 C815.00,408.37 806.25,416.43 800.46,419.31 C797.68,420.69 792.96,422.50 789.96,423.33 ZM 901.50 423.82 C879.37,428.55 860.56,423.57 846.92,409.35 C837.01,399.02 831.99,386.61 832.01,372.54 C832.06,348.67 846.51,328.51 868.38,321.79 C873.80,320.13 878.01,319.61 886.00,319.62 C903.01,319.64 915.38,324.48 925.46,335.04 C931.40,341.28 931.98,342.83 929.25,345.22 C926.28,347.82 910.92,357.00 909.54,357.00 C908.82,357.00 907.06,355.46 905.63,353.58 C904.19,351.70 900.53,348.94 897.48,347.45 C892.60,345.06 891.10,344.80 884.72,345.21 C870.19,346.16 860.82,354.90 859.36,368.86 C857.63,385.36 870.41,400.00 886.50,399.97 C893.90,399.95 899.13,397.67 904.45,392.12 C906.63,389.85 909.03,388.00 909.79,388.00 C910.56,388.00 913.73,389.75 916.84,391.90 C919.95,394.04 924.41,396.97 926.75,398.41 C929.09,399.85 931.00,401.73 931.00,402.59 C931.00,403.45 928.49,406.78 925.43,409.99 C919.26,416.46 909.47,422.12 901.50,423.82 ZM 1086.80 421.80 C1085.01,423.59 1063.61,423.44 1062.11,421.64 C1061.30,420.65 1061.05,406.65 1061.24,371.39 L 1061.50 322.50 L 1087.50 322.50 L 1088.50 335.50 L 1090.86 331.71 C1095.17,324.78 1110.80,318.22 1116.67,320.89 C1119.03,321.97 1119.06,322.13 1118.78,334.73 L 1118.50 347.47 L 1110.44 348.61 C1101.49,349.88 1097.81,351.44 1093.80,355.66 C1088.32,361.43 1088.00,363.53 1088.00,393.27 C1088.00,413.19 1087.67,420.93 1086.80,421.80 ZM 578.89 421.64 C578.05,422.64 574.79,423.00 566.50,423.00 C558.21,423.00 554.95,422.64 554.11,421.64 C553.30,420.65 553.05,406.65 553.24,371.39 L 553.50 322.50 L 579.50 322.50 L 579.76 371.39 C579.95,406.65 579.70,420.65 578.89,421.64 ZM 474.69 398.03 C487.69,403.11 502.44,397.24 509.01,384.38 C511.06,380.36 511.49,378.09 511.47,371.50 C511.44,364.58 511.05,362.78 508.53,358.20 C503.36,348.76 492.20,343.05 481.65,344.45 C465.40,346.61 456.08,357.88 457.23,373.98 C458.07,385.74 463.95,393.83 474.69,398.03 ZM 982.39 398.44 C987.65,400.39 999.29,399.95 1003.74,397.64 C1016.08,391.23 1022.31,377.45 1018.60,364.70 C1015.05,352.49 1005.34,345.00 993.06,345.00 C980.57,345.00 972.23,349.74 967.42,359.58 C960.25,374.22 967.46,392.93 982.39,398.44 ZM 643.39 398.44 C648.97,400.51 659.29,399.92 664.54,397.23 C669.98,394.46 676.29,387.42 678.48,381.70 C681.08,374.88 680.24,363.79 676.66,357.68 C665.65,338.89 637.45,339.95 628.35,359.49 C624.94,366.81 625.05,377.69 628.59,384.80 C631.59,390.82 637.50,396.27 643.39,398.44 ZM 574.58 305.95 C565.05,311.84 552.37,304.94 551.25,293.25 C550.30,283.38 557.23,276.08 567.60,276.02 C572.17,276.00 577.02,278.76 580.37,283.28 C585.04,289.57 582.03,301.34 574.58,305.95 ZM 1152.48 360.97 C1152.92,361.69 1161.08,361.95 1177.32,361.77 L 1201.50 361.50 L 1201.24 359.00 C1200.83,355.13 1195.85,348.74 1191.27,346.21 C1182.83,341.54 1169.14,342.05 1161.26,347.32 C1156.41,350.56 1151.13,358.78 1152.48,360.97 ZM 746.02 359.77 L 746.00 362.04 L 770.25 361.77 L 794.50 361.50 L 794.24 359.00 C793.82,355.05 788.81,348.72 784.00,346.06 C780.64,344.20 777.66,343.52 771.54,343.21 C763.97,342.82 763.12,343.00 757.02,346.17 C750.27,349.68 746.05,354.89 746.02,359.77 ZM 243.16 296.25 C243.66,297.21 244.39,297.99 244.79,297.98 C245.18,297.97 249.55,295.58 254.50,292.67 C261.75,288.40 263.56,286.86 263.81,284.77 C264.15,281.87 263.40,281.20 252.68,274.87 C245.21,270.46 242.68,270.42 243.18,274.71 C243.43,276.79 244.73,278.14 248.73,280.46 C251.61,282.13 253.83,283.95 253.66,284.50 C253.50,285.05 251.16,286.70 248.47,288.18 C243.26,291.02 241.69,293.42 243.16,296.25 ZM 200.50 292.67 C205.45,295.58 209.95,297.82 210.50,297.65 C211.05,297.48 211.64,295.94 211.81,294.22 C212.10,291.29 211.72,290.89 205.81,287.90 C200.25,285.10 199.72,284.59 201.35,283.61 C210.92,277.88 212.00,276.96 212.00,274.52 C212.00,270.79 209.17,271.26 199.35,276.61 C191.33,280.98 190.91,281.38 191.19,284.30 C191.46,287.00 192.57,288.00 200.50,292.67 ZM 220.65 300.50 C222.18,302.03 222.42,302.02 224.10,300.33 C226.43,297.98 236.40,269.48 235.61,267.42 C235.22,266.41 234.05,265.98 232.26,266.18 C229.65,266.48 229.23,267.32 224.29,282.00 C221.43,290.52 219.06,297.81 219.04,298.18 C219.02,298.55 219.74,299.60 220.65,300.50 Z" fill="#f5f5f7"/>
  <path d="M 285.50 481.10 C262.71,494.24 259.23,495.89 257.67,494.33 C257.30,493.97 257.00,481.43 257.00,466.47 L 257.00 439.28 L 269.75 431.98 C276.76,427.96 288.16,421.37 295.08,417.34 C301.99,413.30 308.38,410.00 309.26,410.00 C310.14,410.00 311.12,410.81 311.44,411.81 C312.50,415.15 311.75,462.88 310.59,465.13 C309.96,466.36 299.30,473.14 285.50,481.10 ZM 248.00 467.02 C248.00,488.83 247.72,494.89 246.70,495.28 C245.53,495.73 235.01,489.95 204.74,472.20 L 194.00 465.91 L 194.00 437.95 C194.00,435.91 194.00,434.00 193.99,432.21 C193.97,416.82 193.96,411.03 196.09,410.09 C197.37,409.52 199.43,410.72 202.74,412.65 C203.37,413.02 204.05,413.41 204.78,413.83 C223.39,424.42 245.64,437.38 246.75,438.25 C247.70,439.00 248.00,445.99 248.00,467.02 Z" fill="#356b52"/>
</svg>
