<svg width="0" height="0" class="hidden">
  <symbol viewBox="0 0 256 212" xmlns="http://www.w3.org/2000/svg" preserveAspectRatio="xMinYMin meet" id="bem">
    <path d="M0 32.692h59.85v17.603H0V32.692zM0 0h59.85v17.603H0V0zm107.38 65.132H0v17.603h103.356c11.316 0 37.72.251 47.528 16.094v-9.807c-4.778-15.592-18.86-23.89-43.505-23.89zm.25 32.691H0v17.603h103.356c25.147 0 40.99 1.006 47.528 4.527v-7.796c-5.03-12.322-26.153-14.334-43.253-14.334zm-.25 82.986H0v-17.603h103.356c11.316 0 37.72-.251 47.528-16.094v9.807c-4.778 15.592-18.86 23.89-43.505 23.89zm.25-32.691H0v-17.603h103.356c25.147 0 40.99-1.006 47.528-4.527v7.796c-5.03 12.322-26.153 14.334-43.253 14.334zm69.407 63.12H256v-10.814h-76.7c-6.79 0-22.883-.251-28.667-9.556v6.036c2.766 9.304 11.316 14.334 26.404 14.334zm-.251-19.867h78.963v-10.813H179.3c-15.34 0-24.896-.503-28.668-2.766v4.778c3.017 7.544 15.842 8.801 26.153 8.801z"
      fill="currentColor"></path>
  </symbol>
  <symbol aria-hidden="true" data-prefix="fab" data-icon="bootstrap" xmlns="http://www.w3.org/2000/svg" viewBox="0 0 448 512" id="bootstrap4">
    <path fill="currentColor" d="M292.3 311.93c0 42.41-39.72 41.43-43.92 41.43h-80.89v-81.69h80.89c42.56 0 43.92 31.9 43.92 40.26zm-50.15-73.13c.67 0 38.44 1 38.44-36.31 0-15.52-3.51-35.87-38.44-35.87h-74.66v72.18h74.66zM448 106.67v298.66A74.89 74.89 0 0 1 373.33 480H74.67A74.89 74.89 0 0 1 0 405.33V106.67A74.89 74.89 0 0 1 74.67 32h298.66A74.89 74.89 0 0 1 448 106.67zM338.05 317.86c0-21.57-6.65-58.29-49.05-67.35v-.73c22.91-9.78 37.34-28.25 37.34-55.64 0-7 2-64.78-77.6-64.78h-127v261.33c128.23 0 139.87 1.68 163.6-5.71 14.21-4.42 52.71-17.98 52.71-67.12z"></path>
  </symbol>
  <symbol aria-hidden="true" data-prefix="fab" data-icon="css3-alt" xmlns="http://www.w3.org/2000/svg" viewBox="0 0 384 512" id="css3">
    <path fill="currentColor" d="M0 32l34.9 395.8L192 480l157.1-52.2L384 32H0zm313.1 80l-4.8 47.3L193 208.6l-.3.1h111.5l-12.8 146.6-98.2 28.7-98.8-29.2-6.4-73.9h48.9l3.2 38.3 52.6 13.3 54.7-15.4 3.7-61.6-166.3-.5v-.1l-.2.1-3.6-46.3L193.1 162l6.5-2.7H76.7L70.9 112h242.2z"></path>
  </symbol>
  <symbol aria-hidden="true" data-prefix="fab" data-icon="figma" xmlns="http://www.w3.org/2000/svg" viewBox="0 0 384 512" id="figma">
    <path fill="currentColor" d="M277 170.7A85.35 85.35 0 0 0 277 0H106.3a85.3 85.3 0 0 0 0 170.6 85.35 85.35 0 0 0 0 170.7 85.35 85.35 0 1 0 85.3 85.4v-256zm0 0a85.3 85.3 0 1 0 85.3 85.3 85.31 85.31 0 0 0-85.3-85.3z"></path>
  </symbol>
  <symbol aria-hidden="true" data-prefix="fab" data-icon="gulp" xmlns="http://www.w3.org/2000/svg" viewBox="0 0 256 512" id="gulp">
    <path fill="currentColor" d="M209.8 391.1l-14.1 24.6-4.6 80.2c0 8.9-28.3 16.1-63.1 16.1s-63.1-7.2-63.1-16.1l-5.8-79.4-14.9-25.4c41.2 17.3 126 16.7 165.6 0zm-196-253.3l13.6 125.5c5.9-20 20.8-47 40-55.2 6.3-2.7 12.7-2.7 18.7.9 5.2 3 9.6 9.3 10.1 11.8 1.2 6.5-2 9.1-4.5 9.1-3 0-5.3-4.6-6.8-7.3-4.1-7.3-10.3-7.6-16.9-2.8-6.9 5-12.9 13.4-17.1 20.7-5.1 8.8-9.4 18.5-12 28.2-1.5 5.6-2.9 14.6-.6 19.9 1 2.2 2.5 3.6 4.9 3.6 5 0 12.3-6.6 15.8-10.1 4.5-4.5 10.3-11.5 12.5-16l5.2-15.5c2.6-6.8 9.9-5.6 9.9 0 0 10.2-3.7 13.6-10 34.7-5.8 19.5-7.6 25.8-7.6 25.8-.7 2.8-3.4 7.5-6.3 7.5-1.2 0-2.1-.4-2.6-1.2-1-1.4-.9-5.3-.8-6.3.2-3.2 6.3-22.2 7.3-25.2-2 2.2-4.1 4.4-6.4 6.6-5.4 5.1-14.1 11.8-21.5 11.8-3.4 0-5.6-.9-7.7-2.4l7.6 79.6c2 5 39.2 17.1 88.2 17.1 49.1 0 86.3-12.2 88.2-17.1l10.9-94.6c-5.7 5.2-12.3 11.6-19.6 14.8-5.4 2.3-17.4 3.8-17.4-5.7 0-5.2 9.1-14.8 14.4-21.5 1.4-1.7 4.7-5.9 4.7-8.1 0-2.9-6-2.2-11.7 2.5-3.2 2.7-6.2 6.3-8.7 9.7-4.3 6-6.6 11.2-8.5 15.5-6.2 14.2-4.1 8.6-9.1 22-5 13.3-4.2 11.8-5.2 14-.9 1.9-2.2 3.5-4 4.5-1.9 1-4.5.9-6.1-.3-.9-.6-1.3-1.9-1.3-3.7 0-.9.1-1.8.3-2.7 1.5-6.1 7.8-18.1 15-34.3 1.6-3.7 1-2.6.8-2.3-6.2 6-10.9 8.9-14.4 10.5-5.8 2.6-13 2.6-14.5-4.1-.1-.4-.1-.8-.2-1.2-11.8 9.2-24.3 11.7-20-8.1-4.6 8.2-12.6 14.9-22.4 14.9-4.1 0-7.1-1.4-8.6-5.1-2.3-5.5 1.3-14.9 4.6-23.8 1.7-4.5 4-9.9 7.1-16.2 1.6-3.4 4.2-5.4 7.6-4.5.6.2 1.1.4 1.6.7 2.6 1.8 1.6 4.5.3 7.2-3.8 7.5-7.1 13-9.3 20.8-.9 3.3-2 9 1.5 9 2.4 0 4.7-.8 6.9-2.4 4.6-3.4 8.3-8.5 11.1-13.5 2-3.6 4.4-8.3 5.6-12.3.5-1.7 1.1-3.3 1.8-4.8 1.1-2.5 2.6-5.1 5.2-5.1 1.3 0 2.4.5 3.2 1.5 1.7 2.2 1.3 4.5.4 6.9-2 5.6-4.7 10.6-6.9 16.7-1.3 3.5-2.7 8-2.7 11.7 0 3.4 3.7 2.6 6.8 1.2 2.4-1.1 4.8-2.8 6.8-4.5 1.2-4.9.9-3.8 26.4-68.2 1.3-3.3 3.7-4.7 6.1-4.7 1.2 0 2.2.4 3.2 1.1 1.7 1.3 1.7 4.1 1 6.2-.7 1.9-.6 1.3-4.5 10.5-5.2 12.1-8.6 20.8-13.2 31.9-1.9 4.6-7.7 18.9-8.7 22.3-.6 2.2-1.3 5.8 1 5.8 5.4 0 19.3-13.1 23.1-17 .2-.3.5-.4.9-.6.6-1.9 1.2-3.7 1.7-5.5 1.4-3.8 2.7-8.2 5.3-11.3.8-1 1.7-1.6 2.7-1.6 2.8 0 4.2 1.2 4.2 4 0 1.1-.7 5.1-1.1 6.2 1.4-1.5 2.9-3 4.5-4.5 15-13.9 25.7-6.8 25.7.2 0 7.4-8.9 17.7-13.8 23.4-1.6 1.9-4.9 5.4-5 6.4 0 1.3.9 1.8 2.2 1.8 2 0 6.4-3.5 8-4.7 5-3.9 11.8-9.9 16.6-14.1l14.8-136.8c-30.5 17.1-197.6 17.2-228.3.2zm229.7-8.5c0 21-231.2 21-231.2 0 0-8.8 51.8-15.9 115.6-15.9 9 0 17.8.1 26.3.4l12.6-48.7L228.1.6c1.4-1.4 5.8-.2 9.9 3.5s6.6 7.9 5.3 9.3l-.1.1L185.9 74l-10 40.7c39.9 2.6 67.6 8.1 67.6 14.6zm-69.4 4.6c0-.8-.9-1.5-2.5-2.1l-.2.8c0 1.3-5 2.4-11.1 2.4s-11.1-1.1-11.1-2.4c0-.1 0-.2.1-.3l.2-.7c-1.8.6-3 1.4-3 2.3 0 2.1 6.2 3.7 13.7 3.7 7.7.1 13.9-1.6 13.9-3.7z"></path>
  </symbol>
  <symbol aria-hidden="true" data-prefix="fab" data-icon="html5" xmlns="http://www.w3.org/2000/svg" viewBox="0 0 384 512" id="html5">
    <path fill="currentColor" d="M0 32l34.9 395.8L191.5 480l157.6-52.2L384 32H0zm308.2 127.9H124.4l4.1 49.4h175.6l-13.6 148.4-97.9 27v.3h-1.1l-98.7-27.3-6-75.8h47.7L138 320l53.5 14.5 53.7-14.5 6-62.2H84.3L71.5 112.2h241.1l-4.4 47.7z"></path>
  </symbol>
  <symbol aria-hidden="true" data-prefix="fab" data-icon="jq" xmlns="http://www.w3.org/2000/svg" viewBox="0 0 94 100" id="jq">
    <path d="M25.62 17.37c-4.994 7.309-4.372 16.816-.568 24.573l.28.553.189.35c.035.067.075.135.111.2.067.124.133.242.19.363l.363.636.208.35.423.672.189.284c.189.302.402.603.612.9l.017.023c.033.047.07.095.095.142.181.255.378.507.567.756l.21.272.515.645.196.24a29.912 29.912 0 0 0 .718.835l.015.015c.01.013.02.02.029.032a22.427 22.427 0 0 0 .73.784l.234.24.583.582.238.23a32.596 32.596 0 0 0 .799.74l.15.133.726.624.3.244.605.472.323.25.925.677c.023.016.044.033.068.049.217.15.437.297.659.444l.285.194 1.032.642.285.164.775.442c.142.078.287.151.429.225l.553.284.128.062.227.111.879.414.186.095a31.122 31.122 0 0 0 1.024.434l.25.1.967.365.12.043a32.72 32.72 0 0 0 1.078.36l.26.079c.378.113.732.248 1.112.321C70.055 63.51 77.07 44.247 77.07 44.247c-5.89 7.816-16.346 9.876-26.253 7.582-.375-.094-.739-.205-1.106-.315l-.276-.095c-.357-.111-.712-.23-1.064-.352l-.146-.054a33.097 33.097 0 0 1-.939-.354l-.264-.106a29.837 29.837 0 0 1-1.013-.43l-.203-.09-.854-.407-.246-.12a29.203 29.203 0 0 1-.661-.344l-.442-.236a25.414 25.414 0 0 1-.792-.453l-.267-.15a40.996 40.996 0 0 1-1.032-.643c-.095-.062-.185-.127-.279-.19l-.734-.497-.237-.17-.694-.51-.308-.236-.627-.5-.28-.226-.78-.662a.872.872 0 0 0-.094-.072 36.798 36.798 0 0 1-.82-.76l-.23-.227-.59-.588-.231-.236a29.61 29.61 0 0 1-.723-.779l-.036-.038a29.761 29.761 0 0 1-.733-.85l-.192-.233-.53-.664-.193-.246-.61-.827c-5.5-7.641-7.466-18.179-3.08-26.834m11.608-1.123c-3.61 5.293-3.415 12.375-.599 17.972a23.504 23.504 0 0 0 1.598 2.715c.54.79 1.14 1.73 1.859 2.363.26.284.532.567.81.856.07.073.141.142.213.215a23.826 23.826 0 0 0 .828.783c.011.01.022.021.034.03a24.865 24.865 0 0 0 .974.823l.22.174a23.75 23.75 0 0 0 1.011.752.567.567 0 0 0 .028.022c.152.107.308.208.462.31.073.049.143.1.217.147a20.461 20.461 0 0 0 .75.468l.105.062.662.378c.077.045.157.084.236.125l.473.244c.023.012.047.022.07.033.318.16.638.312.966.458.07.032.142.06.214.09.262.114.526.223.794.328l.34.127a24.884 24.884 0 0 0 .728.258l.329.107c.347.11.69.248 1.052.31 18.642 3.145 22.946-11.474 22.946-11.474-3.88 5.69-11.392 8.406-19.41 6.287a19.932 19.932 0 0 1-1.056-.312c-.106-.033-.211-.068-.317-.094a21.132 21.132 0 0 1-.738-.26l-.334-.126c-.267-.095-.532-.213-.794-.326-.072-.031-.143-.06-.214-.093a18.458 18.458 0 0 1-.974-.46c-.164-.082-.326-.168-.487-.253l-.282-.148a18.95 18.95 0 0 1-.617-.354l-.148-.095a24.062 24.062 0 0 1-.746-.465c-.076-.049-.15-.094-.225-.153l-.484-.326a25.952 25.952 0 0 1-1.007-.75l-.227-.182c-3.51-2.822-6.292-6.678-7.614-11.05-1.386-4.537-1.087-9.626 1.323-13.757m10.064-.36c-2.129 3.191-2.338 7.153-.851 10.676 1.557 3.74 4.749 6.674 8.474 8.065.153.058.307.11.472.163l.204.066c.22.07.438.152.664.195 10.294 2.025 13.086-5.38 13.828-6.47-2.446 3.588-6.556 4.449-11.599 3.202a14.39 14.39 0 0 1-1.228-.384 14.762 14.762 0 0 1-1.45-.613 14.942 14.942 0 0 1-2.54-1.58C55.604 16.445 52.8 9.794 55.745 4.376"
      fill="currentColor"></path>
    <g fill="currentColor">
      <path d="M31.418 74.34l-.697 2.473.697-2.471zm3.588 5.367l-.769-.005zm-.19 3.691l-4.604.017zm.965-3.685l-.77-.005zm-.55 3.372l.803-3.06zm16.945-14.089l-1.493 7.025zm-3.842 0L47.2 74.244zm3.578-.316h-3.195a.42.42 0 0 0-.391.315l-2.268 10.497a.42.42 0 0 1-.39.315h-2.262c-2.238 0-1.98-1.547-1.512-3.667l.014-.064.271-1.446.117-.596 1.032-5.039a.254.254 0 0 0-.258-.316h-3.28a.416.416 0 0 0-.389.315l-1.477 7.007c-.813 3.709-.597 7.245 3.818 7.356l.128.003h6.93a.418.418 0 0 0 .39-.316l2.988-14.05c.038-.174-.078-.315-.255-.315zm12.746 11.164c.178 0 .284.142.258.316l-.31 1.516m-.31 1.518l.31-1.518zm-.39.32l-5.887.028z"></path>
      <path d="M56.112 77.891c-.003-.166.186-.451.363-.451l-.398-.007c-.19 1.809.035.458.035.458zm2.198 5.65h-.062zm6.348-3.697c.178 0 .284.142.258.316l-.36 1.763m-4.734 1.623h-.013zm-.784-.006h-.046zm-.24.001h-.075zm-.233 0H58.5zm.437 0h-.194zm.808.005l-.771.003zm4.099-.024l-4.088.025zm.378-.328l.26-1.27-.26 1.271zm-5.573.347h-.149.168zm-.467 0h-.227zm.242 0H58.3zM11.745 77.93l.496-2.2-.567 2.514-.066.316.138-.632zm5.941-9.285h-3.51a.425.425 0 0 0-.393.314l-.666 2.93a.246.246 0 0 0 .252.315h3.536a.42.42 0 0 0 .392-.315l.642-2.936c.038-.173-.075-.315-.255-.315zm-.764 4.884l-1.04 4.761zM6.73 89.306l2.893.023c-.854 0-2.265-.016-2.894-.024z"></path>
      <path d="M12.728 73.528l-.497 2.2zm3.941-.315h-3.537a.425.425 0 0 0-.395.315l-.992 4.4-.138.632-.945 4.492a6.767 6.767 0 0 1-.17.62s-.662 1.966-1.771 1.945l-1.101-.021a.425.425 0 0 0-.397.308l-.733 3.084a.246.246 0 0 0 .247.317l2.895.024c2.775 0 4.237-1.538 5.175-5.96l2.127-9.83c.038-.173-.078-.314-.255-.314zm50.243 10.149c-.178 0-.283-.142-.255-.316l2.66-12.462m1.292 12.461l1.078-5.319z"></path>
      <path d="M66.696 83.204c-.022-.087-.01-.3.028-.473l1.263-5.916-1.33 6.23c-.039.175.077.317.254.317h.323c-.177 0-.517-.071-.538-.158zm3.705.087a1.72 1.72 0 0 1-.5.07h.324a.416.416 0 0 0 .387-.316l.064-.316c-.034.174-.189.523-.283.562zm.746-2.906l.476-2.347zm10.498-8.967l.147.605c.04.173-.072.314-.249.315M70.674 82.73l.472-2.345zM81.5 70.786l.144.62zm-9.878 7.25l.13-.627.507-2.377-.574 2.692-.063.312zM69.36 70.38l-.11.52-1.263 5.916 1.33-6.231.043-.204z"></path>
      <path d="M81.793 72.023l-.147-.605-.217-.945c-.287-1.115-1.13-1.76-2.962-1.76l-8.43-.006a.416.416 0 0 0-.39.316l-.13.617-.19.933-2.593 12.147c-.037.174-.05.378-.028.472s.362.158.539.158h2.665c.178 0 .402-.032.499-.07s.24-.379.284-.562l1.01-5.003 1.083-5.07a.42.42 0 0 1 .39-.315l8.385-.003c.177 0 .29-.142.249-.315zm10.795-5.475l-.645.003h-2.684a.69.69 0 0 0-.505.267l-5.935 8.695c-.1.146-.214.124-.255-.048l-.437-1.915a.425.425 0 0 0-.394-.315h-3.815c-.178 0-.284.139-.235.31l1.702 5.99c.049.17.052.45.009.624l-.756 2.898a.236.236 0 0 0 .243.313h3.78a.44.44 0 0 0 .403-.312l.756-2.898a1.928 1.928 0 0 1 .274-.571l9.646-12.79c.106-.142.049-.257-.129-.255l-1.011.006zM62.274 74.05a.39.39 0 0 1-.378.33h-4.84c-.167 0-.252-.113-.226-.255l.004-.025.021-.083c.473-1.228 1.404-2.034 3.172-2.034 1.991 0 2.38.973 2.245 2.067zm-1.42-5.584c-6.21 0-7.68 3.769-8.506 7.573-.826 3.878-.754 7.504 5.67 7.504h1.02l.784-.003 4.089-.024a.416.416 0 0 0 .384-.317l.621-3.036c.036-.173-.08-.315-.258-.315h-5.776c-2.297 0-2.98-.61-2.729-2.406h9.234a.37.37 0 0 0 .342-.238.39.39 0 0 0 .023-.08c1.37-5.17.977-8.654-4.896-8.654zm-29.349 5.563l-.087.309-.697 2.472-.698 2.47a.454.454 0 0 1-.41.31h-3.691c-2.8 0-3.481-2.19-2.8-5.418.68-3.304 2.018-5.357 4.773-5.565 3.765-.284 4.517 2.364 3.61 5.42zm2.531 5.373s1.74-4.225 2.136-6.666c.539-3.267-1.096-8.005-7.414-8.005-6.282 0-9.01 4.523-10.05 9.45-1.04 4.953.323 9.297 6.568 9.263l9.532-.035a.444.444 0 0 0 .404-.314l.803-3.06a.236.236 0 0 0-.24-.314l-1.539-.01c-.15 0-.236-.098-.219-.226a.351.351 0 0 1 .02-.072z"></path>
      <path d="M65.134 76.575a.211.211 0 1 1-.423 0 .211.211 0 0 1 .423 0z"></path>
    </g>
  </symbol>
  <symbol aria-hidden="true" data-prefix="fab" data-icon="js" xmlns="http://www.w3.org/2000/svg" viewBox="0 0 448 512" id="js">
    <path fill="currentColor" d="M0 32v448h448V32H0zm243.8 349.4c0 43.6-25.6 63.5-62.9 63.5-33.7 0-53.2-17.4-63.2-38.5l34.3-20.7c6.6 11.7 12.6 21.6 27.1 21.6 13.8 0 22.6-5.4 22.6-26.5V237.7h42.1v143.7zm99.6 63.5c-39.1 0-64.4-18.6-76.7-43l34.3-19.8c9 14.7 20.8 25.6 41.5 25.6 17.4 0 28.6-8.7 28.6-20.8 0-14.4-11.4-19.5-30.7-28l-10.5-4.5c-30.4-12.9-50.5-29.2-50.5-63.5 0-31.6 24.1-55.6 61.6-55.6 26.8 0 46 9.3 59.8 33.7L368 290c-7.2-12.9-15-18-27.1-18-12.3 0-20.1 7.8-20.1 18 0 12.6 7.8 17.7 25.9 25.6l10.5 4.5c35.8 15.3 55.9 31 55.9 66.2 0 37.8-29.8 58.6-69.7 58.6z"></path>
  </symbol>
  <symbol aria-hidden="true" data-prefix="fab" data-icon="modx" xmlns="http://www.w3.org/2000/svg" viewBox="0 0 448 512" id="modx">
    <path fill="currentColor" d="M356 241.8l36.7 23.7V480l-133-83.8L356 241.8zM440 75H226.3l-23 37.8 153.5 96.5L440 75zm-89 142.8L55.2 32v214.5l46 29L351 217.8zM97 294.2L8 437h213.7l125-200.5L97 294.2z"></path>
  </symbol>
  <symbol aria-hidden="true" data-prefix="fab" data-icon="node-js" xmlns="http://www.w3.org/2000/svg" viewBox="0 0 448 512" id="nodejs">
    <path fill="currentColor" d="M224 508c-6.7 0-13.5-1.8-19.4-5.2l-61.7-36.5c-9.2-5.2-4.7-7-1.7-8 12.3-4.3 14.8-5.2 27.9-12.7 1.4-.8 3.2-.5 4.6.4l47.4 28.1c1.7 1 4.1 1 5.7 0l184.7-106.6c1.7-1 2.8-3 2.8-5V149.3c0-2.1-1.1-4-2.9-5.1L226.8 37.7c-1.7-1-4-1-5.7 0L36.6 144.3c-1.8 1-2.9 3-2.9 5.1v213.1c0 2 1.1 4 2.9 4.9l50.6 29.2c27.5 13.7 44.3-2.4 44.3-18.7V167.5c0-3 2.4-5.3 5.4-5.3h23.4c2.9 0 5.4 2.3 5.4 5.3V378c0 36.6-20 57.6-54.7 57.6-10.7 0-19.1 0-42.5-11.6l-48.4-27.9C8.1 389.2.7 376.3.7 362.4V149.3c0-13.8 7.4-26.8 19.4-33.7L204.6 9c11.7-6.6 27.2-6.6 38.8 0l184.7 106.7c12 6.9 19.4 19.8 19.4 33.7v213.1c0 13.8-7.4 26.7-19.4 33.7L243.4 502.8c-5.9 3.4-12.6 5.2-19.4 5.2zm149.1-210.1c0-39.9-27-50.5-83.7-58-57.4-7.6-63.2-11.5-63.2-24.9 0-11.1 4.9-25.9 47.4-25.9 37.9 0 51.9 8.2 57.7 33.8.5 2.4 2.7 4.2 5.2 4.2h24c1.5 0 2.9-.6 3.9-1.7s1.5-2.6 1.4-4.1c-3.7-44.1-33-64.6-92.2-64.6-52.7 0-84.1 22.2-84.1 59.5 0 40.4 31.3 51.6 81.8 56.6 60.5 5.9 65.2 14.8 65.2 26.7 0 20.6-16.6 29.4-55.5 29.4-48.9 0-59.6-12.3-63.2-36.6-.4-2.6-2.6-4.5-5.3-4.5h-23.9c-3 0-5.3 2.4-5.3 5.3 0 31.1 16.9 68.2 97.8 68.2 58.4-.1 92-23.2 92-63.4z"></path>
  </symbol>
  <symbol aria-hidden="true" data-prefix="fab" data-icon="adobe" xmlns="http://www.w3.org/2000/svg" viewBox="0 0 512 512" id="photoshop">
    <path fill="currentColor" d="M315.5 64h170.9v384L315.5 64zm-119 0H25.6v384L196.5 64zM256 206.1L363.5 448h-73l-30.7-76.8h-78.7L256 206.1z"></path>
  </symbol>
  <symbol aria-hidden="true" data-prefix="fab" data-icon="sass" xmlns="http://www.w3.org/2000/svg" viewBox="0 0 640 512" id="sass">
    <path fill="currentColor" d="M301.84 378.92c-.3.6-.6 1.08 0 0zm249.13-87a131.16 131.16 0 0 0-58 13.5c-5.9-11.9-12-22.3-13-30.1-1.2-9.1-2.5-14.5-1.1-25.3s7.7-26.1 7.6-27.2-1.4-6.6-14.3-6.7-24 2.5-25.29 5.9a122.83 122.83 0 0 0-5.3 19.1c-2.3 11.7-25.79 53.5-39.09 75.3-4.4-8.5-8.1-16-8.9-22-1.2-9.1-2.5-14.5-1.1-25.3s7.7-26.1 7.6-27.2-1.4-6.6-14.29-6.7-24 2.5-25.3 5.9-2.7 11.4-5.3 19.1-33.89 77.3-42.08 95.4c-4.2 9.2-7.8 16.6-10.4 21.6-.4.8-.7 1.3-.9 1.7.3-.5.5-1 .5-.8-2.2 4.3-3.5 6.7-3.5 6.7v.1c-1.7 3.2-3.6 6.1-4.5 6.1-.6 0-1.9-8.4.3-19.9 4.7-24.2 15.8-61.8 15.7-63.1-.1-.7 2.1-7.2-7.3-10.7-9.1-3.3-12.4 2.2-13.2 2.2s-1.4 2-1.4 2 10.1-42.4-19.39-42.4c-18.4 0-44 20.2-56.58 38.5-7.9 4.3-25 13.6-43 23.5-6.9 3.8-14 7.7-20.7 11.4-.5-.5-.9-1-1.4-1.5-35.79-38.2-101.87-65.2-99.07-116.5 1-18.7 7.5-67.8 127.07-127.4 98-48.8 176.35-35.4 189.84-5.6 19.4 42.5-41.89 121.6-143.66 133-38.79 4.3-59.18-10.7-64.28-16.3-5.3-5.9-6.1-6.2-8.1-5.1-3.3 1.8-1.2 7 0 10.1 3 7.9 15.5 21.9 36.79 28.9 18.7 6.1 64.18 9.5 119.17-11.8 61.78-23.8 109.87-90.1 95.77-145.6C386.52 18.32 293-.18 204.57 31.22c-52.69 18.7-109.67 48.1-150.66 86.4-48.69 45.6-56.48 85.3-53.28 101.9 11.39 58.9 92.57 97.3 125.06 125.7-1.6.9-3.1 1.7-4.5 2.5-16.29 8.1-78.18 40.5-93.67 74.7-17.5 38.8 2.9 66.6 16.29 70.4 41.79 11.6 84.58-9.3 107.57-43.6s20.2-79.1 9.6-99.5c-.1-.3-.3-.5-.4-.8 4.2-2.5 8.5-5 12.8-7.5 8.29-4.9 16.39-9.4 23.49-13.3-4 10.8-6.9 23.8-8.4 42.6-1.8 22 7.3 50.5 19.1 61.7 5.2 4.9 11.49 5 15.39 5 13.8 0 20-11.4 26.89-25 8.5-16.6 16-35.9 16-35.9s-9.4 52.2 16.3 52.2c9.39 0 18.79-12.1 23-18.3v.1s.2-.4.7-1.2c1-1.5 1.5-2.4 1.5-2.4v-.3c3.8-6.5 12.1-21.4 24.59-46 16.2-31.8 31.69-71.5 31.69-71.5a201.24 201.24 0 0 0 6.2 25.8c2.8 9.5 8.7 19.9 13.4 30-3.8 5.2-6.1 8.2-6.1 8.2a.31.31 0 0 0 .1.2c-3 4-6.4 8.3-9.9 12.5-12.79 15.2-28 32.6-30 37.6-2.4 5.9-1.8 10.3 2.8 13.7 3.4 2.6 9.4 3 15.69 2.5 11.5-.8 19.6-3.6 23.5-5.4a82.2 82.2 0 0 0 20.19-10.6c12.5-9.2 20.1-22.4 19.4-39.8-.4-9.6-3.5-19.2-7.3-28.2 1.1-1.6 2.3-3.3 3.4-5C434.8 301.72 450.1 270 450.1 270a201.24 201.24 0 0 0 6.2 25.8c2.4 8.1 7.09 17 11.39 25.7-18.59 15.1-30.09 32.6-34.09 44.1-7.4 21.3-1.6 30.9 9.3 33.1 4.9 1 11.9-1.3 17.1-3.5a79.46 79.46 0 0 0 21.59-11.1c12.5-9.2 24.59-22.1 23.79-39.6-.3-7.9-2.5-15.8-5.4-23.4 15.7-6.6 36.09-10.2 62.09-7.2 55.68 6.5 66.58 41.3 64.48 55.8s-13.8 22.6-17.7 25-5.1 3.3-4.8 5.1c.5 2.6 2.3 2.5 5.6 1.9 4.6-.8 29.19-11.8 30.29-38.7 1.6-34-31.09-71.4-89-71.1zm-429.18 144.7c-18.39 20.1-44.19 27.7-55.28 21.3C54.61 451 59.31 421.42 82 400c13.8-13 31.59-25 43.39-32.4 2.7-1.6 6.6-4 11.4-6.9.8-.5 1.2-.7 1.2-.7.9-.6 1.9-1.1 2.9-1.7 8.29 30.4.3 57.2-19.1 78.3zm134.36-91.4c-6.4 15.7-19.89 55.7-28.09 53.6-7-1.8-11.3-32.3-1.4-62.3 5-15.1 15.6-33.1 21.9-40.1 10.09-11.3 21.19-14.9 23.79-10.4 3.5 5.9-12.2 49.4-16.2 59.2zm111 53c-2.7 1.4-5.2 2.3-6.4 1.6-.9-.5 1.1-2.4 1.1-2.4s13.9-14.9 19.4-21.7c3.2-4 6.9-8.7 10.89-13.9 0 .5.1 1 .1 1.6-.13 17.9-17.32 30-25.12 34.8zm85.58-19.5c-2-1.4-1.7-6.1 5-20.7 2.6-5.7 8.59-15.3 19-24.5a36.18 36.18 0 0 1 1.9 10.8c-.1 22.5-16.2 30.9-25.89 34.4z"></path>
  </symbol>
  <symbol aria-hidden="true" data-prefix="fab" data-icon="vuejs" xmlns="http://www.w3.org/2000/svg" viewBox="0 0 448 512" id="vuejs">
    <path fill="currentColor" d="M356.9 64.3H280l-56 88.6-48-88.6H0L224 448 448 64.3h-91.1zm-301.2 32h53.8L224 294.5 338.4 96.3h53.8L224 384.5 55.7 96.3z"></path>
  </symbol>
  <symbol aria-hidden="true" data-prefix="fas" data-icon="envelope-square" xmlns="http://www.w3.org/2000/svg" viewBox="0 0 448 512" id="email">
    <path fill="currentColor" d="M400 32H48C21.49 32 0 53.49 0 80v352c0 26.51 21.49 48 48 48h352c26.51 0 48-21.49 48-48V80c0-26.51-21.49-48-48-48zM178.117 262.104C87.429 196.287 88.353 196.121 64 177.167V152c0-13.255 10.745-24 24-24h272c13.255 0 24 10.745 24 24v25.167c-24.371 18.969-23.434 19.124-114.117 84.938-10.5 7.655-31.392 26.12-45.883 25.894-14.503.218-35.367-18.227-45.883-25.895zM384 217.775V360c0 13.255-10.745 24-24 24H88c-13.255 0-24-10.745-24-24V217.775c13.958 10.794 33.329 25.236 95.303 70.214 14.162 10.341 37.975 32.145 64.694 32.01 26.887.134 51.037-22.041 64.72-32.025 61.958-44.965 81.325-59.406 95.283-70.199z"></path>
  </symbol>
</svg>