<svg width="0" height="0" class="hidden">
<symbol viewBox="0 0 256 212" xmlns="http://www.w3.org/2000/svg" preserveAspectRatio="xMinYMin meet" id="bem">
    <path d="M0 32.692h59.85v17.603H0V32.692zM0 0h59.85v17.603H0V0zm107.38 65.132H0v17.603h103.356c11.316 0 37.72.251 47.528 16.094v-9.807c-4.778-15.592-18.86-23.89-43.505-23.89zm.25 32.691H0v17.603h103.356c25.147 0 40.99 1.006 47.528 4.527v-7.796c-5.03-12.322-26.153-14.334-43.253-14.334zm-.25 82.986H0v-17.603h103.356c11.316 0 37.72-.251 47.528-16.094v9.807c-4.778 15.592-18.86 23.89-43.505 23.89zm.25-32.691H0v-17.603h103.356c25.147 0 40.99-1.006 47.528-4.527v7.796c-5.03 12.322-26.153 14.334-43.253 14.334zm69.407 63.12H256v-10.814h-76.7c-6.79 0-22.883-.251-28.667-9.556v6.036c2.766 9.304 11.316 14.334 26.404 14.334zm-.251-19.867h78.963v-10.813H179.3c-15.34 0-24.896-.503-28.668-2.766v4.778c3.017 7.544 15.842 8.801 26.153 8.801z"
      fill="currentColor"></path>
  </symbol>
<symbol aria-hidden="true" data-prefix="fab" data-icon="bootstrap" xmlns="http://www.w3.org/2000/svg" viewBox="0 0 448 512" id="bootstrap4">
    <path fill="currentColor" d="M292.3 311.93c0 42.41-39.72 41.43-43.92 41.43h-80.89v-81.69h80.89c42.56 0 43.92 31.9 43.92 40.26zm-50.15-73.13c.67 0 38.44 1 38.44-36.31 0-15.52-3.51-35.87-38.44-35.87h-74.66v72.18h74.66zM448 106.67v298.66A74.89 74.89 0 0 1 373.33 480H74.67A74.89 74.89 0 0 1 0 405.33V106.67A74.89 74.89 0 0 1 74.67 32h298.66A74.89 74.89 0 0 1 448 106.67zM338.05 317.86c0-21.57-6.65-58.29-49.05-67.35v-.73c22.91-9.78 37.34-28.25 37.34-55.64 0-7 2-64.78-77.6-64.78h-127v261.33c128.23 0 139.87 1.68 163.6-5.71 14.21-4.42 52.71-17.98 52.71-67.12z"></path>
  </symbol>
<symbol aria-hidden="true" data-prefix="fab" data-icon="css3-alt" xmlns="http://www.w3.org/2000/svg" viewBox="0 0 384 512" id="css3">
    <path fill="currentColor" d="M0 32l34.9 395.8L192 480l157.1-52.2L384 32H0zm313.1 80l-4.8 47.3L193 208.6l-.3.1h111.5l-12.8 146.6-98.2 28.7-98.8-29.2-6.4-73.9h48.9l3.2 38.3 52.6 13.3 54.7-15.4 3.7-61.6-166.3-.5v-.1l-.2.1-3.6-46.3L193.1 162l6.5-2.7H76.7L70.9 112h242.2z"></path>
  </symbol>
<symbol aria-hidden="true" data-prefix="fab" data-icon="figma" xmlns="http://www.w3.org/2000/svg" viewBox="0 0 384 512" id="figma">
    <path fill="currentColor" d="M277 170.7A85.35 85.35 0 0 0 277 0H106.3a85.3 85.3 0 0 0 0 170.6 85.35 85.35 0 0 0 0 170.7 85.35 85.35 0 1 0 85.3 85.4v-256zm0 0a85.3 85.3 0 1 0 85.3 85.3 85.31 85.31 0 0 0-85.3-85.3z"></path>
  </symbol>
<symbol aria-hidden="true" data-prefix="fab" data-icon="gulp" xmlns="http://www.w3.org/2000/svg" viewBox="0 0 256 512" id="gulp">
    <path fill="currentColor" d="M209.8 391.1l-14.1 24.6-4.6 80.2c0 8.9-28.3 16.1-63.1 16.1s-63.1-7.2-63.1-16.1l-5.8-79.4-14.9-25.4c41.2 17.3 126 16.7 165.6 0zm-196-253.3l13.6 125.5c5.9-20 20.8-47 40-55.2 6.3-2.7 12.7-2.7 18.7.9 5.2 3 9.6 9.3 10.1 11.8 1.2 6.5-2 9.1-4.5 9.1-3 0-5.3-4.6-6.8-7.3-4.1-7.3-10.3-7.6-16.9-2.8-6.9 5-12.9 13.4-17.1 20.7-5.1 8.8-9.4 18.5-12 28.2-1.5 5.6-2.9 14.6-.6 19.9 1 2.2 2.5 3.6 4.9 3.6 5 0 12.3-6.6 15.8-10.1 4.5-4.5 10.3-11.5 12.5-16l5.2-15.5c2.6-6.8 9.9-5.6 9.9 0 0 10.2-3.7 13.6-10 34.7-5.8 19.5-7.6 25.8-7.6 25.8-.7 2.8-3.4 7.5-6.3 7.5-1.2 0-2.1-.4-2.6-1.2-1-1.4-.9-5.3-.8-6.3.2-3.2 6.3-22.2 7.3-25.2-2 2.2-4.1 4.4-6.4 6.6-5.4 5.1-14.1 11.8-21.5 11.8-3.4 0-5.6-.9-7.7-2.4l7.6 79.6c2 5 39.2 17.1 88.2 17.1 49.1 0 86.3-12.2 88.2-17.1l10.9-94.6c-5.7 5.2-12.3 11.6-19.6 14.8-5.4 2.3-17.4 3.8-17.4-5.7 0-5.2 9.1-14.8 14.4-21.5 1.4-1.7 4.7-5.9 4.7-8.1 0-2.9-6-2.2-11.7 2.5-3.2 2.7-6.2 6.3-8.7 9.7-4.3 6-6.6 11.2-8.5 15.5-6.2 14.2-4.1 8.6-9.1 22-5 13.3-4.2 11.8-5.2 14-.9 1.9-2.2 3.5-4 4.5-1.9 1-4.5.9-6.1-.3-.9-.6-1.3-1.9-1.3-3.7 0-.9.1-1.8.3-2.7 1.5-6.1 7.8-18.1 15-34.3 1.6-3.7 1-2.6.8-2.3-6.2 6-10.9 8.9-14.4 10.5-5.8 2.6-13 2.6-14.5-4.1-.1-.4-.1-.8-.2-1.2-11.8 9.2-24.3 11.7-20-8.1-4.6 8.2-12.6 14.9-22.4 14.9-4.1 0-7.1-1.4-8.6-5.1-2.3-5.5 1.3-14.9 4.6-23.8 1.7-4.5 4-9.9 7.1-16.2 1.6-3.4 4.2-5.4 7.6-4.5.6.2 1.1.4 1.6.7 2.6 1.8 1.6 4.5.3 7.2-3.8 7.5-7.1 13-9.3 20.8-.9 3.3-2 9 1.5 9 2.4 0 4.7-.8 6.9-2.4 4.6-3.4 8.3-8.5 11.1-13.5 2-3.6 4.4-8.3 5.6-12.3.5-1.7 1.1-3.3 1.8-4.8 1.1-2.5 2.6-5.1 5.2-5.1 1.3 0 2.4.5 3.2 1.5 1.7 2.2 1.3 4.5.4 6.9-2 5.6-4.7 10.6-6.9 16.7-1.3 3.5-2.7 8-2.7 11.7 0 3.4 3.7 2.6 6.8 1.2 2.4-1.1 4.8-2.8 6.8-4.5 1.2-4.9.9-3.8 26.4-68.2 1.3-3.3 3.7-4.7 6.1-4.7 1.2 0 2.2.4 3.2 1.1 1.7 1.3 1.7 4.1 1 6.2-.7 1.9-.6 1.3-4.5 10.5-5.2 12.1-8.6 20.8-13.2 31.9-1.9 4.6-7.7 18.9-8.7 22.3-.6 2.2-1.3 5.8 1 5.8 5.4 0 19.3-13.1 23.1-17 .2-.3.5-.4.9-.6.6-1.9 1.2-3.7 1.7-5.5 1.4-3.8 2.7-8.2 5.3-11.3.8-1 1.7-1.6 2.7-1.6 2.8 0 4.2 1.2 4.2 4 0 1.1-.7 5.1-1.1 6.2 1.4-1.5 2.9-3 4.5-4.5 15-13.9 25.7-6.8 25.7.2 0 7.4-8.9 17.7-13.8 23.4-1.6 1.9-4.9 5.4-5 6.4 0 1.3.9 1.8 2.2 1.8 2 0 6.4-3.5 8-4.7 5-3.9 11.8-9.9 16.6-14.1l14.8-136.8c-30.5 17.1-197.6 17.2-228.3.2zm229.7-8.5c0 21-231.2 21-231.2 0 0-8.8 51.8-15.9 115.6-15.9 9 0 17.8.1 26.3.4l12.6-48.7L228.1.6c1.4-1.4 5.8-.2 9.9 3.5s6.6 7.9 5.3 9.3l-.1.1L185.9 74l-10 40.7c39.9 2.6 67.6 8.1 67.6 14.6zm-69.4 4.6c0-.8-.9-1.5-2.5-2.1l-.2.8c0 1.3-5 2.4-11.1 2.4s-11.1-1.1-11.1-2.4c0-.1 0-.2.1-.3l.2-.7c-1.8.6-3 1.4-3 2.3 0 2.1 6.2 3.7 13.7 3.7 7.7.1 13.9-1.6 13.9-3.7z"></path>
  </symbol>
<symbol aria-hidden="true" data-prefix="fab" data-icon="html5" xmlns="http://www.w3.org/2000/svg" viewBox="0 0 384 512" id="html5">
    <path fill="currentColor" d="M0 32l34.9 395.8L191.5 480l157.6-52.2L384 32H0zm308.2 127.9H124.4l4.1 49.4h175.6l-13.6 148.4-97.9 27v.3h-1.1l-98.7-27.3-6-75.8h47.7L138 320l53.5 14.5 53.7-14.5 6-62.2H84.3L71.5 112.2h241.1l-4.4 47.7z"></path>
  </symbol>
<symbol aria-hidden="true" data-prefix="fab" data-icon="jq" xmlns="http://www.w3.org/2000/svg" viewBox="0 0 94 100" id="jq">
    <path d="M25.62 17.37c-4.994 7.309-4.372 16.816-.568 24.573l.28.553.189.35c.035.067.075.135.111.2.067.124.133.242.19.363l.363.636.208.35.423.672.189.284c.189.302.402.603.612.9l.017.023c.033.047.07.095.095.142.181.255.378.507.567.756l.21.272.515.645.196.24a29.912 29.912 0 0 0 .718.835l.015.015c.01.013.02.02.029.032a22.427 22.427 0 0 0 .73.784l.234.24.583.582.238.23a32.596 32.596 0 0 0 .799.74l.15.133.726.624.3.244.605.472.323.25.925.677c.023.016.044.033.068.049.217.15.437.297.659.444l.285.194 1.032.642.285.164.775.442c.142.078.287.151.429.225l.553.284.128.062.227.111.879.414.186.095a31.122 31.122 0 0 0 1.024.434l.25.1.967.365.12.043a32.72 32.72 0 0 0 1.078.36l.26.079c.378.113.732.248 1.112.321C70.055 63.51 77.07 44.247 77.07 44.247c-5.89 7.816-16.346 9.876-26.253 7.582-.375-.094-.739-.205-1.106-.315l-.276-.095c-.357-.111-.712-.23-1.064-.352l-.146-.054a33.097 33.097 0 0 1-.939-.354l-.264-.106a29.837 29.837 0 0 1-1.013-.43l-.203-.09-.854-.407-.246-.12a29.203 29.203 0 0 1-.661-.344l-.442-.236a25.414 25.414 0 0 1-.792-.453l-.267-.15a40.996 40.996 0 0 1-1.032-.643c-.095-.062-.185-.127-.279-.19l-.734-.497-.237-.17-.694-.51-.308-.236-.627-.5-.28-.226-.78-.662a.872.872 0 0 0-.094-.072 36.798 36.798 0 0 1-.82-.76l-.23-.227-.59-.588-.231-.236a29.61 29.61 0 0 1-.723-.779l-.036-.038a29.761 29.761 0 0 1-.733-.85l-.192-.233-.53-.664-.193-.246-.61-.827c-5.5-7.641-7.466-18.179-3.08-26.834m11.608-1.123c-3.61 5.293-3.415 12.375-.599 17.972a23.504 23.504 0 0 0 1.598 2.715c.54.79 1.14 1.73 1.859 2.363.26.284.532.567.81.856.07.073.141.142.213.215a23.826 23.826 0 0 0 .828.783c.011.01.022.021.034.03a24.865 24.865 0 0 0 .974.823l.22.174a23.75 23.75 0 0 0 1.011.752.567.567 0 0 0 .028.022c.152.107.308.208.462.31.073.049.143.1.217.147a20.461 20.461 0 0 0 .75.468l.105.062.662.378c.077.045.157.084.236.125l.473.244c.023.012.047.022.07.033.318.16.638.312.966.458.07.032.142.06.214.09.262.114.526.223.794.328l.34.127a24.884 24.884 0 0 0 .728.258l.329.107c.347.11.69.248 1.052.31 18.642 3.145 22.946-11.474 22.946-11.474-3.88 5.69-11.392 8.406-19.41 6.287a19.932 19.932 0 0 1-1.056-.312c-.106-.033-.211-.068-.317-.094a21.132 21.132 0 0 1-.738-.26l-.334-.126c-.267-.095-.532-.213-.794-.326-.072-.031-.143-.06-.214-.093a18.458 18.458 0 0 1-.974-.46c-.164-.082-.326-.168-.487-.253l-.282-.148a18.95 18.95 0 0 1-.617-.354l-.148-.095a24.062 24.062 0 0 1-.746-.465c-.076-.049-.15-.094-.225-.153l-.484-.326a25.952 25.952 0 0 1-1.007-.75l-.227-.182c-3.51-2.822-6.292-6.678-7.614-11.05-1.386-4.537-1.087-9.626 1.323-13.757m10.064-.36c-2.129 3.191-2.338 7.153-.851 10.676 1.557 3.74 4.749 6.674 8.474 8.065.153.058.307.11.472.163l.204.066c.22.07.438.152.664.195 10.294 2.025 13.086-5.38 13.828-6.47-2.446 3.588-6.556 4.449-11.599 3.202a14.39 14.39 0 0 1-1.228-.384 14.762 14.762 0 0 1-1.45-.613 14.942 14.942 0 0 1-2.54-1.58C55.604 16.445 52.8 9.794 55.745 4.376"
      fill="currentColor"></path>
    <g fill="currentColor">
      <path d="M31.418 74.34l-.697 2.473.697-2.471zm3.588 5.367l-.769-.005zm-.19 3.691l-4.604.017zm.965-3.685l-.77-.005zm-.55 3.372l.803-3.06zm16.945-14.089l-1.493 7.025zm-3.842 0L47.2 74.244zm3.578-.316h-3.195a.42.42 0 0 0-.391.315l-2.268 10.497a.42.42 0 0 1-.39.315h-2.262c-2.238 0-1.98-1.547-1.512-3.667l.014-.064.271-1.446.117-.596 1.032-5.039a.254.254 0 0 0-.258-.316h-3.28a.416.416 0 0 0-.389.315l-1.477 7.007c-.813 3.709-.597 7.245 3.818 7.356l.128.003h6.93a.418.418 0 0 0 .39-.316l2.988-14.05c.038-.174-.078-.315-.255-.315zm12.746 11.164c.178 0 .284.142.258.316l-.31 1.516m-.31 1.518l.31-1.518zm-.39.32l-5.887.028z"></path>
      <path d="M56.112 77.891c-.003-.166.186-.451.363-.451l-.398-.007c-.19 1.809.035.458.035.458zm2.198 5.65h-.062zm6.348-3.697c.178 0 .284.142.258.316l-.36 1.763m-4.734 1.623h-.013zm-.784-.006h-.046zm-.24.001h-.075zm-.233 0H58.5zm.437 0h-.194zm.808.005l-.771.003zm4.099-.024l-4.088.025zm.378-.328l.26-1.27-.26 1.271zm-5.573.347h-.149.168zm-.467 0h-.227zm.242 0H58.3zM11.745 77.93l.496-2.2-.567 2.514-.066.316.138-.632zm5.941-9.285h-3.51a.425.425 0 0 0-.393.314l-.666 2.93a.246.246 0 0 0 .252.315h3.536a.42.42 0 0 0 .392-.315l.642-2.936c.038-.173-.075-.315-.255-.315zm-.764 4.884l-1.04 4.761zM6.73 89.306l2.893.023c-.854 0-2.265-.016-2.894-.024z"></path>
      <path d="M12.728 73.528l-.497 2.2zm3.941-.315h-3.537a.425.425 0 0 0-.395.315l-.992 4.4-.138.632-.945 4.492a6.767 6.767 0 0 1-.17.62s-.662 1.966-1.771 1.945l-1.101-.021a.425.425 0 0 0-.397.308l-.733 3.084a.246.246 0 0 0 .247.317l2.895.024c2.775 0 4.237-1.538 5.175-5.96l2.127-9.83c.038-.173-.078-.314-.255-.314zm50.243 10.149c-.178 0-.283-.142-.255-.316l2.66-12.462m1.292 12.461l1.078-5.319z"></path>
      <path d="M66.696 83.204c-.022-.087-.01-.3.028-.473l1.263-5.916-1.33 6.23c-.039.175.077.317.254.317h.323c-.177 0-.517-.071-.538-.158zm3.705.087a1.72 1.72 0 0 1-.5.07h.324a.416.416 0 0 0 .387-.316l.064-.316c-.034.174-.189.523-.283.562zm.746-2.906l.476-2.347zm10.498-8.967l.147.605c.04.173-.072.314-.249.315M70.674 82.73l.472-2.345zM81.5 70.786l.144.62zm-9.878 7.25l.13-.627.507-2.377-.574 2.692-.063.312zM69.36 70.38l-.11.52-1.263 5.916 1.33-6.231.043-.204z"></path>
      <path d="M81.793 72.023l-.147-.605-.217-.945c-.287-1.115-1.13-1.76-2.962-1.76l-8.43-.006a.416.416 0 0 0-.39.316l-.13.617-.19.933-2.593 12.147c-.037.174-.05.378-.028.472s.362.158.539.158h2.665c.178 0 .402-.032.499-.07s.24-.379.284-.562l1.01-5.003 1.083-5.07a.42.42 0 0 1 .39-.315l8.385-.003c.177 0 .29-.142.249-.315zm10.795-5.475l-.645.003h-2.684a.69.69 0 0 0-.505.267l-5.935 8.695c-.1.146-.214.124-.255-.048l-.437-1.915a.425.425 0 0 0-.394-.315h-3.815c-.178 0-.284.139-.235.31l1.702 5.99c.049.17.052.45.009.624l-.756 2.898a.236.236 0 0 0 .243.313h3.78a.44.44 0 0 0 .403-.312l.756-2.898a1.928 1.928 0 0 1 .274-.571l9.646-12.79c.106-.142.049-.257-.129-.255l-1.011.006zM62.274 74.05a.39.39 0 0 1-.378.33h-4.84c-.167 0-.252-.113-.226-.255l.004-.025.021-.083c.473-1.228 1.404-2.034 3.172-2.034 1.991 0 2.38.973 2.245 2.067zm-1.42-5.584c-6.21 0-7.68 3.769-8.506 7.573-.826 3.878-.754 7.504 5.67 7.504h1.02l.784-.003 4.089-.024a.416.416 0 0 0 .384-.317l.621-3.036c.036-.173-.08-.315-.258-.315h-5.776c-2.297 0-2.98-.61-2.729-2.406h9.234a.37.37 0 0 0 .342-.238.39.39 0 0 0 .023-.08c1.37-5.17.977-8.654-4.896-8.654zm-29.349 5.563l-.087.309-.697 2.472-.698 2.47a.454.454 0 0 1-.41.31h-3.691c-2.8 0-3.481-2.19-2.8-5.418.68-3.304 2.018-5.357 4.773-5.565 3.765-.284 4.517 2.364 3.61 5.42zm2.531 5.373s1.74-4.225 2.136-6.666c.539-3.267-1.096-8.005-7.414-8.005-6.282 0-9.01 4.523-10.05 9.45-1.04 4.953.323 9.297 6.568 9.263l9.532-.035a.444.444 0 0 0 .404-.314l.803-3.06a.236.236 0 0 0-.24-.314l-1.539-.01c-.15 0-.236-.098-.219-.226a.351.351 0 0 1 .02-.072z"></path>
      <path d="M65.134 76.575a.211.211 0 1 1-.423 0 .211.211 0 0 1 .423 0z"></path>
    </g>
  </symbol>
<symbol aria-hidden="true" data-prefix="fab" data-icon="js" xmlns="http://www.w3.org/2000/svg" viewBox="0 0 448 512" id="js">
    <path fill="currentColor" d="M0 32v448h448V32H0zm243.8 349.4c0 43.6-25.6 63.5-62.9 63.5-33.7 0-53.2-17.4-63.2-38.5l34.3-20.7c6.6 11.7 12.6 21.6 27.1 21.6 13.8 0 22.6-5.4 22.6-26.5V237.7h42.1v143.7zm99.6 63.5c-39.1 0-64.4-18.6-76.7-43l34.3-19.8c9 14.7 20.8 25.6 41.5 25.6 17.4 0 28.6-8.7 28.6-20.8 0-14.4-11.4-19.5-30.7-28l-10.5-4.5c-30.4-12.9-50.5-29.2-50.5-63.5 0-31.6 24.1-55.6 61.6-55.6 26.8 0 46 9.3 59.8 33.7L368 290c-7.2-12.9-15-18-27.1-18-12.3 0-20.1 7.8-20.1 18 0 12.6 7.8 17.7 25.9 25.6l10.5 4.5c35.8 15.3 55.9 31 55.9 66.2 0 37.8-29.8 58.6-69.7 58.6z"></path>
  </symbol>
<symbol aria-hidden="true" data-prefix="fab" data-icon="modx" xmlns="http://www.w3.org/2000/svg" viewBox="0 0 448 512" id="modx">
    <path fill="currentColor" d="M356 241.8l36.7 23.7V480l-133-83.8L356 241.8zM440 75H226.3l-23 37.8 153.5 96.5L440 75zm-89 142.8L55.2 32v214.5l46 29L351 217.8zM97 294.2L8 437h213.7l125-200.5L97 294.2z"></path>
  </symbol>
<symbol aria-hidden="true" data-prefix="fab" data-icon="adobe" xmlns="http://www.w3.org/2000/svg" viewBox="0 0 512 512" id="photoshop">
    <path fill="currentColor" d="M315.5 64h170.9v384L315.5 64zm-119 0H25.6v384L196.5 64zM256 206.1L363.5 448h-73l-30.7-76.8h-78.7L256 206.1z"></path>
  </symbol>
<symbol aria-hidden="true" data-prefix="fab" data-icon="sass" xmlns="http://www.w3.org/2000/svg" viewBox="0 0 640 512" id="sass">
    <path fill="currentColor" d="M301.84 378.92c-.3.6-.6 1.08 0 0zm249.13-87a131.16 131.16 0 0 0-58 13.5c-5.9-11.9-12-22.3-13-30.1-1.2-9.1-2.5-14.5-1.1-25.3s7.7-26.1 7.6-27.2-1.4-6.6-14.3-6.7-24 2.5-25.29 5.9a122.83 122.83 0 0 0-5.3 19.1c-2.3 11.7-25.79 53.5-39.09 75.3-4.4-8.5-8.1-16-8.9-22-1.2-9.1-2.5-14.5-1.1-25.3s7.7-26.1 7.6-27.2-1.4-6.6-14.29-6.7-24 2.5-25.3 5.9-2.7 11.4-5.3 19.1-33.89 77.3-42.08 95.4c-4.2 9.2-7.8 16.6-10.4 21.6-.4.8-.7 1.3-.9 1.7.3-.5.5-1 .5-.8-2.2 4.3-3.5 6.7-3.5 6.7v.1c-1.7 3.2-3.6 6.1-4.5 6.1-.6 0-1.9-8.4.3-19.9 4.7-24.2 15.8-61.8 15.7-63.1-.1-.7 2.1-7.2-7.3-10.7-9.1-3.3-12.4 2.2-13.2 2.2s-1.4 2-1.4 2 10.1-42.4-19.39-42.4c-18.4 0-44 20.2-56.58 38.5-7.9 4.3-25 13.6-43 23.5-6.9 3.8-14 7.7-20.7 11.4-.5-.5-.9-1-1.4-1.5-35.79-38.2-101.87-65.2-99.07-116.5 1-18.7 7.5-67.8 127.07-127.4 98-48.8 176.35-35.4 189.84-5.6 19.4 42.5-41.89 121.6-143.66 133-38.79 4.3-59.18-10.7-64.28-16.3-5.3-5.9-6.1-6.2-8.1-5.1-3.3 1.8-1.2 7 0 10.1 3 7.9 15.5 21.9 36.79 28.9 18.7 6.1 64.18 9.5 119.17-11.8 61.78-23.8 109.87-90.1 95.77-145.6C386.52 18.32 293-.18 204.57 31.22c-52.69 18.7-109.67 48.1-150.66 86.4-48.69 45.6-56.48 85.3-53.28 101.9 11.39 58.9 92.57 97.3 125.06 125.7-1.6.9-3.1 1.7-4.5 2.5-16.29 8.1-78.18 40.5-93.67 74.7-17.5 38.8 2.9 66.6 16.29 70.4 41.79 11.6 84.58-9.3 107.57-43.6s20.2-79.1 9.6-99.5c-.1-.3-.3-.5-.4-.8 4.2-2.5 8.5-5 12.8-7.5 8.29-4.9 16.39-9.4 23.49-13.3-4 10.8-6.9 23.8-8.4 42.6-1.8 22 7.3 50.5 19.1 61.7 5.2 4.9 11.49 5 15.39 5 13.8 0 20-11.4 26.89-25 8.5-16.6 16-35.9 16-35.9s-9.4 52.2 16.3 52.2c9.39 0 18.79-12.1 23-18.3v.1s.2-.4.7-1.2c1-1.5 1.5-2.4 1.5-2.4v-.3c3.8-6.5 12.1-21.4 24.59-46 16.2-31.8 31.69-71.5 31.69-71.5a201.24 201.24 0 0 0 6.2 25.8c2.8 9.5 8.7 19.9 13.4 30-3.8 5.2-6.1 8.2-6.1 8.2a.31.31 0 0 0 .1.2c-3 4-6.4 8.3-9.9 12.5-12.79 15.2-28 32.6-30 37.6-2.4 5.9-1.8 10.3 2.8 13.7 3.4 2.6 9.4 3 15.69 2.5 11.5-.8 19.6-3.6 23.5-5.4a82.2 82.2 0 0 0 20.19-10.6c12.5-9.2 20.1-22.4 19.4-39.8-.4-9.6-3.5-19.2-7.3-28.2 1.1-1.6 2.3-3.3 3.4-5C434.8 301.72 450.1 270 450.1 270a201.24 201.24 0 0 0 6.2 25.8c2.4 8.1 7.09 17 11.39 25.7-18.59 15.1-30.09 32.6-34.09 44.1-7.4 21.3-1.6 30.9 9.3 33.1 4.9 1 11.9-1.3 17.1-3.5a79.46 79.46 0 0 0 21.59-11.1c12.5-9.2 24.59-22.1 23.79-39.6-.3-7.9-2.5-15.8-5.4-23.4 15.7-6.6 36.09-10.2 62.09-7.2 55.68 6.5 66.58 41.3 64.48 55.8s-13.8 22.6-17.7 25-5.1 3.3-4.8 5.1c.5 2.6 2.3 2.5 5.6 1.9 4.6-.8 29.19-11.8 30.29-38.7 1.6-34-31.09-71.4-89-71.1zm-429.18 144.7c-18.39 20.1-44.19 27.7-55.28 21.3C54.61 451 59.31 421.42 82 400c13.8-13 31.59-25 43.39-32.4 2.7-1.6 6.6-4 11.4-6.9.8-.5 1.2-.7 1.2-.7.9-.6 1.9-1.1 2.9-1.7 8.29 30.4.3 57.2-19.1 78.3zm134.36-91.4c-6.4 15.7-19.89 55.7-28.09 53.6-7-1.8-11.3-32.3-1.4-62.3 5-15.1 15.6-33.1 21.9-40.1 10.09-11.3 21.19-14.9 23.79-10.4 3.5 5.9-12.2 49.4-16.2 59.2zm111 53c-2.7 1.4-5.2 2.3-6.4 1.6-.9-.5 1.1-2.4 1.1-2.4s13.9-14.9 19.4-21.7c3.2-4 6.9-8.7 10.89-13.9 0 .5.1 1 .1 1.6-.13 17.9-17.32 30-25.12 34.8zm85.58-19.5c-2-1.4-1.7-6.1 5-20.7 2.6-5.7 8.59-15.3 19-24.5a36.18 36.18 0 0 1 1.9 10.8c-.1 22.5-16.2 30.9-25.89 34.4z"></path>
  </symbol>
<symbol aria-hidden="true" data-prefix="fab" data-icon="vuejs" xmlns="http://www.w3.org/2000/svg" viewBox="0 0 448 512" id="vuejs">
    <path fill="currentColor" d="M356.9 64.3H280l-56 88.6-48-88.6H0L224 448 448 64.3h-91.1zm-301.2 32h53.8L224 294.5 338.4 96.3h53.8L224 384.5 55.7 96.3z"></path>
  </symbol>
<symbol aria-hidden="true" xmlns="http://www.w3.org/2000/svg" viewBox="0 0 448 512" id="email">
    <path fill="currentColor" d="M400 32H48C21.49 32 0 53.49 0 80v352c0 26.51 21.49 48 48 48h352c26.51 0 48-21.49 48-48V80c0-26.51-21.49-48-48-48zM178.117 262.104C87.429 196.287 88.353 196.121 64 177.167V152c0-13.255 10.745-24 24-24h272c13.255 0 24 10.745 24 24v25.167c-24.371 18.969-23.434 19.124-114.117 84.938-10.5 7.655-31.392 26.12-45.883 25.894-14.503.218-35.367-18.227-45.883-25.895zM384 217.775V360c0 13.255-10.745 24-24 24H88c-13.255 0-24-10.745-24-24V217.775c13.958 10.794 33.329 25.236 95.303 70.214 14.162 10.341 37.975 32.145 64.694 32.01 26.887.134 51.037-22.041 64.72-32.025 61.958-44.965 81.325-59.406 95.283-70.199z"></path>
  </symbol>
  <symbol xmlns="http://www.w3.org/2000/svg" viewBox="0 0 24 24" id="ddd">
<path fill="none" stroke="currentColor" stroke-width="1.6" stroke-linejoin="round" d="M12 4 5 7.5v9L12 20l7-3.5v-9z"/><path fill="none" stroke="currentColor" stroke-width="1.6" stroke-linejoin="round" opacity="0.65" d="M5 7.5 12 11l7-3.5M12 11v9"/>
  </symbol>
  <symbol xmlns="http://www.w3.org/2000/svg" viewBox="-1 0 24 24" id="electron">
<path fill="#D8FFFF" d="m7.827 5.156c-.6-.127-1.288-.2-1.994-.2-.752 0-1.486.083-2.191.24l.067-.012c-1.056.208-1.935.838-2.471 1.702l-.009.016c-.289.486-.46 1.071-.46 1.696 0 .176.014.349.04.518l-.002-.019c.14.968.462 1.837.931 2.608l-.017-.03c.032.05.073.091.121.121l.002.001c.047.026.103.041.162.041h.016-.001c.081-.003.154-.039.205-.095.057-.051.093-.123.095-.204 0-.002 0-.003 0-.005 0-.032-.005-.063-.014-.092l.001.002c-.008-.02-.013-.043-.014-.068-.41-.657-.707-1.429-.841-2.255l-.005-.036c-.023-.137-.037-.295-.037-.456 0-.514.136-.996.374-1.412l-.007.014c.494-.75 1.269-1.28 2.172-1.443l.02-.003c.56-.122 1.202-.192 1.861-.192s1.302.07 1.921.203l-.06-.011h.004c.014 0 .027.005.037.014l.014.014h.006c.089 0 .168-.036.226-.095.059-.058.095-.139.095-.228 0-.002 0-.003 0-.004 0-.005 0-.011 0-.017 0-.076-.026-.146-.069-.202l.001.001c-.045-.053-.106-.091-.175-.108h-.002zm-4.473 8.727c.683.719 1.404 1.383 2.166 1.999l.042.033c.726.587 1.536 1.15 2.386 1.653l.094.052c.983.57 2.135 1.112 3.335 1.557l.159.052c.946.362 2.061.661 3.214.846l.099.013c.491.083 1.056.13 1.632.13.44 0 .873-.028 1.298-.081l-.051.005c.83-.095 1.579-.372 2.229-.79l-.021.012c.036-.036.067-.076.094-.12l.002-.003c.026-.042.041-.093.041-.147 0-.001 0-.002 0-.002 0-.001 0-.003 0-.004 0-.089-.036-.17-.095-.228-.058-.059-.139-.095-.228-.095-.002 0-.003 0-.004 0-.03.004-.057.013-.081.028l.001-.001c-.031.015-.057.033-.08.055-.585.373-1.283.622-2.032.694l-.019.001c-.319.037-.689.058-1.063.058-.578 0-1.145-.05-1.695-.146l.059.008c-1.181-.198-2.226-.482-3.227-.857l.118.039c-1.251-.457-2.321-.977-3.329-1.588l.084.047c-.952-.547-1.767-1.102-2.537-1.712l.042.032c-.784-.62-1.484-1.268-2.13-1.966l-.011-.012c-.034-.034-.075-.061-.12-.079l-.002-.001c-.036-.016-.078-.026-.122-.027h-.001c-.001 0-.003 0-.004 0-.089 0-.17.036-.228.095-.059.058-.095.139-.095.228v.004c0 .04.01.077.028.11l-.001-.001zm15.792-.409c.902-.98 1.602-2.16 2.027-3.465l.019-.067c.13-.365.205-.787.205-1.226 0-.655-.167-1.271-.46-1.808l.01.02c-.384-.649-.956-1.151-1.641-1.437l-.023-.008c-.773-.328-1.672-.518-2.615-.518-.011 0-.022 0-.032 0h.002c-.003 0-.007 0-.011 0-.083 0-.157.037-.207.095-.05.059-.08.137-.08.221v.012-.001.011c0 .084.03.161.081.221v-.001c.05.059.124.095.207.095h.012-.001c.05-.002.11-.002.169-.002.784 0 1.533.156 2.215.439l-.038-.014c.594.246 1.079.656 1.411 1.174l.007.012c.221.432.351.943.351 1.483 0 .407-.074.797-.208 1.158l.007-.023c-.414 1.247-1.053 2.32-1.874 3.223l.006-.007-.054.109c-.017.032-.027.069-.027.109v.004c0 .089.036.17.095.228.058.059.139.095.228.095h.004.008c.048 0 .092-.015.129-.041h-.001c.032-.024.067-.047.105-.066l.004-.002zm-5.264-8.208c-1.193.283-2.213.615-3.194 1.019l.14-.051c-1.082.44-1.988.893-2.854 1.405l.1-.055c-1.192.689-2.223 1.424-3.176 2.245l.027-.022c-.876.747-1.654 1.56-2.345 2.443l-.028.037c-.573.725-1.056 1.558-1.409 2.456l-.023.066c-.214.519-.339 1.123-.339 1.755 0 .209.014.415.04.616l-.003-.024c.019.075.057.14.109.191.053.05.124.08.203.08h.017-.001.006c.089 0 .169-.036.227-.094.059-.058.095-.139.095-.228 0-.002 0-.003 0-.004v-.054c-.016-.139-.025-.301-.025-.465 0-.595.121-1.162.341-1.677l-.011.028c.357-.897.815-1.672 1.373-2.363l-.013.017c.695-.868 1.446-1.636 2.266-2.325l.025-.02c.899-.762 1.897-1.469 2.955-2.086l.099-.054c.714-.43 1.556-.855 2.429-1.22l.131-.048c.782-.333 1.728-.646 2.702-.886l.134-.028c.115-.022.216-.07.3-.139l-.001.001c.05-.053.08-.124.08-.203 0-.006 0-.011 0-.017v.001c-.003-.081-.039-.154-.095-.205-.051-.057-.123-.093-.204-.095h-.08zm-7.609 13.876c.461 1.38 1.169 2.567 2.08 3.567l-.007-.008c.668.769 1.637 1.262 2.722 1.295h.006c.783-.008 1.504-.273 2.081-.715l-.008.006c.708-.537 1.292-1.198 1.729-1.954l.017-.032c.014-.026.028-.058.039-.09l.002-.005c.009-.027.014-.058.014-.09 0-.002 0-.004 0-.006 0-.001 0-.003 0-.004 0-.089-.036-.17-.095-.228-.058-.059-.139-.095-.228-.095-.001 0-.003 0-.004 0-.001 0-.001 0-.002 0-.054 0-.105.015-.149.042l.001-.001c-.05.032-.091.073-.121.121l-.001.002c-.405.704-.92 1.297-1.528 1.777l-.013.01c-.473.374-1.075.603-1.73.614h-.002c-.941-.046-1.77-.49-2.328-1.167l-.004-.006c-.802-.908-1.431-1.991-1.822-3.181l-.018-.065c-.039-.057-.084-.106-.135-.149l-.001-.001c-.05-.042-.115-.068-.186-.068-.002 0-.004 0-.005 0-.081.003-.154.039-.205.095-.059.058-.095.139-.095.228v.004.109zm9.818-.572c.252-.779.471-1.718.615-2.681l.012-.1c.139-.9.218-1.938.218-2.994 0-.012 0-.023 0-.035v.002-.16c0-.023 0-.049 0-.076 0-1.318-.119-2.608-.347-3.859l.02.131c-.218-1.244-.54-2.347-.967-3.396l.04.11c-.381-.959-.863-1.787-1.448-2.53l.016.021c-.476-.623-1.084-1.122-1.784-1.46l-.029-.013c-.017-.017-.04-.027-.066-.027-.001 0-.002 0-.002 0h-.068c-.003 0-.007 0-.011 0-.084 0-.161.03-.221.081h.001c-.059.05-.095.125-.095.207v.012-.001.008c0 .068.02.132.055.185l-.001-.001c.032.05.079.088.134.108l.002.001c.667.328 1.221.795 1.642 1.365l.009.012c.516.68.956 1.458 1.286 2.293l.023.066c.362.89.665 1.938.858 3.023l.014.097c.2 1.072.314 2.305.314 3.565v.08-.004.16.02c0 1.033-.079 2.047-.232 3.036l.014-.11c-.163 1.074-.391 2.021-.69 2.936l.036-.127.027-.08v.027.004c0 .089.036.17.095.228.058.059.139.095.228.095h.004.005c.071 0 .136-.026.187-.068.048-.037.085-.086.108-.142l.001-.002zm6.055-.328c0-.006 0-.013 0-.02 0-.415-.172-.79-.449-1.058-.273-.278-.652-.45-1.072-.45-.012 0-.023 0-.035 0h.002c-.006 0-.012 0-.019 0-.416 0-.791.173-1.058.45-.277.268-.45.643-.45 1.058v.021-.001.032c0 .42.172.8.45 1.072.268.278.643.451 1.059.451h.02-.001.033c.42 0 .799-.172 1.072-.45.277-.273.449-.652.449-1.071 0-.012 0-.025 0-.037v.002zm-.655 0v.02c0 .243-.099.462-.259.62-.158.16-.377.259-.62.259-.007 0-.014 0-.021 0h.001c-.001 0-.002 0-.003 0-.244 0-.464-.099-.624-.259-.168-.156-.273-.377-.273-.624 0-.006 0-.012 0-.017v.001c.001-.247.105-.47.272-.627.157-.168.38-.272.627-.273h.016c.246 0 .468.105.623.272l.001.001c.16.16.259.381.259.625v.002zm-19.937 1.559h.019c.415 0 .79-.172 1.058-.449.278-.273.451-.653.451-1.073 0-.011 0-.023 0-.034v.002c0-.006 0-.012 0-.019 0-.416-.173-.791-.45-1.058-.268-.277-.643-.45-1.058-.45-.007 0-.014 0-.021 0h.001c-.01 0-.021 0-.032 0-.42 0-.8.172-1.072.45-.277.268-.45.643-.45 1.058v.021-.001.032c0 .42.172.8.45 1.072.273.277.652.449 1.071.449h.035zm0-.655c-.006 0-.013 0-.02 0-.243 0-.462-.099-.62-.259-.16-.158-.259-.377-.259-.62 0-.007 0-.014 0-.021v.001c0-.001 0-.002 0-.003 0-.244.099-.464.259-.624.156-.168.377-.273.624-.273h.017-.001c.247.001.47.105.627.272.168.157.272.38.273.627v.016c0 .246-.105.468-.272.623l-.001.001c-.16.158-.379.255-.621.255-.002 0-.004 0-.006 0zm9.52-16.064h.033c.42 0 .799-.172 1.072-.45.278-.268.451-.643.451-1.059 0-.007 0-.013 0-.02v.001c0-.01 0-.021 0-.033 0-.42-.172-.799-.45-1.072-.273-.278-.652-.45-1.072-.45-.012 0-.023 0-.035 0h.002c-.006 0-.012 0-.019 0-.416 0-.791.173-1.058.45-.278.273-.45.652-.45 1.072v.035-.002.019c0 .416.173.791.45 1.058.268.277.643.45 1.058.45h.017-.001zm0-.654c-.002 0-.005 0-.007 0-.238 0-.453-.099-.606-.259-.16-.153-.259-.368-.259-.606 0-.003 0-.005 0-.008 0-.006 0-.013 0-.02 0-.243.099-.462.259-.62.153-.16.368-.259.606-.259h.008.02c.243 0 .462.099.62.259.16.158.259.377.259.62v.021-.001.007c0 .238-.099.453-.259.606-.158.161-.378.26-.621.26-.007 0-.014 0-.02 0h.001zm.246 11.264c-.035.017-.075.027-.118.027-.001 0-.003 0-.004 0h-.125c-.005 0-.011 0-.018 0-.303 0-.577-.125-.773-.327-.202-.196-.327-.47-.327-.774 0-.006 0-.012 0-.019v.001c0-.007 0-.015 0-.023 0-.298.126-.566.327-.754l.001-.001c.198-.194.47-.314.77-.314h.022-.001.021c.262 0 .502.093.69.247l-.002-.001c.188.148.323.355.38.593l.001.007v.011c0 .044.005.087.014.129l-.001-.004c.009.033.014.07.014.109v.021c0 .262-.093.502-.247.69l.001-.002c-.155.192-.371.33-.619.382l-.007.001z"/>
  </symbol>
  <symbol xmlns="http://www.w3.org/2000/svg" viewBox="0 0 24 24" id="fsd">
<rect x="4" y="5" width="16" height="3.5" rx="1" fill="currentColor" opacity="0.45"/><rect x="4" y="10.25" width="16" height="3.5" rx="1" fill="currentColor" opacity="0.7"/><rect x="4" y="15.5" width="16" height="3.5" rx="1" fill="currentColor"/>
  </symbol>
  <symbol xmlns="http://www.w3.org/2000/svg" viewBox="0 0 128 128" id="mongodb">
<path fill-rule="evenodd" clip-rule="evenodd" fill="#439934" d="M88.038 42.812c1.605 4.643 2.761 9.383 3.141 14.296.472 6.095.256 12.147-1.029 18.142-.035.165-.109.32-.164.48-.403.001-.814-.049-1.208.012-3.329.523-6.655 1.065-9.981 1.604-3.438.557-6.881 1.092-10.313 1.687-1.216.21-2.721-.041-3.212 1.641-.014.046-.154.054-.235.08l.166-10.051-.169-24.252 1.602-.275c2.62-.429 5.24-.864 7.862-1.281 3.129-.497 6.261-.98 9.392-1.465 1.381-.215 2.764-.412 4.148-.618z"/><path fill-rule="evenodd" clip-rule="evenodd" fill="#45A538" d="M61.729 110.054c-1.69-1.453-3.439-2.842-5.059-4.37-8.717-8.222-15.093-17.899-18.233-29.566-.865-3.211-1.442-6.474-1.627-9.792-.13-2.322-.318-4.665-.154-6.975.437-6.144 1.325-12.229 3.127-18.147l.099-.138c.175.233.427.439.516.702 1.759 5.18 3.505 10.364 5.242 15.551 5.458 16.3 10.909 32.604 16.376 48.9.107.318.384.579.583.866l-.87 2.969z"/><path fill-rule="evenodd" clip-rule="evenodd" fill="#46A037" d="M88.038 42.812c-1.384.206-2.768.403-4.149.616-3.131.485-6.263.968-9.392 1.465-2.622.417-5.242.852-7.862 1.281l-1.602.275-.012-1.045c-.053-.859-.144-1.717-.154-2.576-.069-5.478-.112-10.956-.18-16.434-.042-3.429-.105-6.857-.175-10.285-.043-2.13-.089-4.261-.185-6.388-.052-1.143-.236-2.28-.311-3.423-.042-.657.016-1.319.029-1.979.817 1.583 1.616 3.178 2.456 4.749 1.327 2.484 3.441 4.314 5.344 6.311 7.523 7.892 12.864 17.068 16.193 27.433z"/><path fill-rule="evenodd" clip-rule="evenodd" fill="#409433" d="M65.036 80.753c.081-.026.222-.034.235-.08.491-1.682 1.996-1.431 3.212-1.641 3.432-.594 6.875-1.13 10.313-1.687 3.326-.539 6.652-1.081 9.981-1.604.394-.062.805-.011 1.208-.012-.622 2.22-1.112 4.488-1.901 6.647-.896 2.449-1.98 4.839-3.131 7.182a49.142 49.142 0 01-6.353 9.763c-1.919 2.308-4.058 4.441-6.202 6.548-1.185 1.165-2.582 2.114-3.882 3.161l-.337-.23-1.214-1.038-1.256-2.753a41.402 41.402 0 01-1.394-9.838l.023-.561.171-2.426c.057-.828.133-1.655.168-2.485.129-2.982.241-5.964.359-8.946z"/><path fill-rule="evenodd" clip-rule="evenodd" fill="#4FAA41" d="M65.036 80.753c-.118 2.982-.23 5.964-.357 8.947-.035.83-.111 1.657-.168 2.485l-.765.289c-1.699-5.002-3.399-9.951-5.062-14.913-2.75-8.209-5.467-16.431-8.213-24.642a4498.887 4498.887 0 00-6.7-19.867c-.105-.31-.407-.552-.617-.826l4.896-9.002c.168.292.39.565.496.879a6167.476 6167.476 0 016.768 20.118c2.916 8.73 5.814 17.467 8.728 26.198.116.349.308.671.491 1.062l.67-.78-.167 10.052z"/><path fill-rule="evenodd" clip-rule="evenodd" fill="#4AA73C" d="M43.155 32.227c.21.274.511.516.617.826a4498.887 4498.887 0 016.7 19.867c2.746 8.211 5.463 16.433 8.213 24.642 1.662 4.961 3.362 9.911 5.062 14.913l.765-.289-.171 2.426-.155.559c-.266 2.656-.49 5.318-.814 7.968-.163 1.328-.509 2.632-.772 3.947-.198-.287-.476-.548-.583-.866-5.467-16.297-10.918-32.6-16.376-48.9a3888.972 3888.972 0 00-5.242-15.551c-.089-.263-.34-.469-.516-.702l3.272-8.84z"/><path fill-rule="evenodd" clip-rule="evenodd" fill="#57AE47" d="M65.202 70.702l-.67.78c-.183-.391-.375-.714-.491-1.062-2.913-8.731-5.812-17.468-8.728-26.198a6167.476 6167.476 0 00-6.768-20.118c-.105-.314-.327-.588-.496-.879l6.055-7.965c.191.255.463.482.562.769 1.681 4.921 3.347 9.848 5.003 14.778 1.547 4.604 3.071 9.215 4.636 13.813.105.308.47.526.714.786l.012 1.045c.058 8.082.115 16.167.171 24.251z"/><path fill-rule="evenodd" clip-rule="evenodd" fill="#60B24F" d="M65.021 45.404c-.244-.26-.609-.478-.714-.786-1.565-4.598-3.089-9.209-4.636-13.813-1.656-4.93-3.322-9.856-5.003-14.778-.099-.287-.371-.514-.562-.769 1.969-1.928 3.877-3.925 5.925-5.764 1.821-1.634 3.285-3.386 3.352-5.968.003-.107.059-.214.145-.514l.519 1.306c-.013.661-.072 1.322-.029 1.979.075 1.143.259 2.28.311 3.423.096 2.127.142 4.258.185 6.388.069 3.428.132 6.856.175 10.285.067 5.478.111 10.956.18 16.434.008.861.098 1.718.152 2.577z"/><path fill-rule="evenodd" clip-rule="evenodd" fill="#A9AA88" d="M62.598 107.085c.263-1.315.609-2.62.772-3.947.325-2.649.548-5.312.814-7.968l.066-.01.066.011a41.402 41.402 0 001.394 9.838c-.176.232-.425.439-.518.701-.727 2.05-1.412 4.116-2.143 6.166-.1.28-.378.498-.574.744l-.747-2.566.87-2.969z"/><path fill-rule="evenodd" clip-rule="evenodd" fill="#B6B598" d="M62.476 112.621c.196-.246.475-.464.574-.744.731-2.05 1.417-4.115 2.143-6.166.093-.262.341-.469.518-.701l1.255 2.754c-.248.352-.59.669-.728 1.061l-2.404 7.059c-.099.283-.437.483-.663.722l-.695-3.985z"/><path fill-rule="evenodd" clip-rule="evenodd" fill="#C2C1A7" d="M63.171 116.605c.227-.238.564-.439.663-.722l2.404-7.059c.137-.391.48-.709.728-1.061l1.215 1.037c-.587.58-.913 1.25-.717 2.097l-.369 1.208c-.168.207-.411.387-.494.624-.839 2.403-1.64 4.819-2.485 7.222-.107.305-.404.544-.614.812-.109-1.387-.22-2.771-.331-4.158z"/><path fill-rule="evenodd" clip-rule="evenodd" fill="#CECDB7" d="M63.503 120.763c.209-.269.506-.508.614-.812.845-2.402 1.646-4.818 2.485-7.222.083-.236.325-.417.494-.624l-.509 5.545c-.136.157-.333.294-.398.477-.575 1.614-1.117 3.24-1.694 4.854-.119.333-.347.627-.525.938-.158-.207-.441-.407-.454-.623-.051-.841-.016-1.688-.013-2.533z"/><path fill-rule="evenodd" clip-rule="evenodd" fill="#DBDAC7" d="M63.969 123.919c.178-.312.406-.606.525-.938.578-1.613 1.119-3.239 1.694-4.854.065-.183.263-.319.398-.477l.012 3.64-1.218 3.124-1.411-.495z"/><path fill-rule="evenodd" clip-rule="evenodd" fill="#EBE9DC" d="M65.38 124.415l1.218-3.124.251 3.696-1.469-.572z"/><path fill-rule="evenodd" clip-rule="evenodd" fill="#CECDB7" d="M67.464 110.898c-.196-.847.129-1.518.717-2.097l.337.23-1.054 1.867z"/><path fill-rule="evenodd" clip-rule="evenodd" fill="#4FAA41" d="M64.316 95.172l-.066-.011-.066.01.155-.559-.023.56z"/>
  </symbol>
  <symbol xmlns="http://www.w3.org/2000/svg" viewBox="0 0 128 128" id="mysql">
<path fill="#00618A" d="M117.688 98.242c-6.973-.191-12.297.461-16.852 2.379-1.293.547-3.355.559-3.566 2.18.711.746.82 1.859 1.387 2.777 1.086 1.754 2.922 4.113 4.559 5.352 1.789 1.348 3.633 2.793 5.551 3.961 3.414 2.082 7.223 3.27 10.504 5.352 1.938 1.23 3.859 2.777 5.75 4.164.934.684 1.563 1.75 2.773 2.18v-.195c-.637-.812-.801-1.93-1.387-2.777l-2.578-2.578c-2.52-3.344-5.719-6.281-9.117-8.719-2.711-1.949-8.781-4.578-9.91-7.73l-.199-.199c1.922-.219 4.172-.914 5.949-1.391 2.98-.797 5.645-.59 8.719-1.387l4.164-1.187v-.793c-1.555-1.594-2.664-3.707-4.359-5.152-4.441-3.781-9.285-7.555-14.273-10.703-2.766-1.746-6.184-2.883-9.117-4.363-.988-.496-2.719-.758-3.371-1.586-1.539-1.961-2.379-4.449-3.566-6.738-2.488-4.793-4.93-10.023-7.137-15.066-1.504-3.437-2.484-6.828-4.359-9.91-9-14.797-18.687-23.73-33.695-32.508-3.195-1.867-7.039-2.605-11.102-3.57l-6.543-.395c-1.332-.555-2.715-2.184-3.965-2.977C16.977 3.52 4.223-3.312.539 5.672-1.785 11.34 4.016 16.871 6.09 19.746c1.457 2.012 3.32 4.273 4.359 6.539.688 1.492.805 2.984 1.391 4.559 1.438 3.883 2.695 8.109 4.559 11.695.941 1.816 1.98 3.727 3.172 5.352.727.996 1.98 1.438 2.18 2.973-1.227 1.715-1.297 4.375-1.984 6.543-3.098 9.77-1.926 21.91 2.578 29.137 1.383 2.223 4.641 6.98 9.117 5.156 3.918-1.598 3.043-6.539 4.164-10.902.254-.988.098-1.715.594-2.379v.199l3.57 7.133c2.641 4.254 7.324 8.699 11.297 11.699 2.059 1.555 3.68 4.242 6.344 5.152v-.199h-.199c-.516-.805-1.324-1.137-1.98-1.781-1.551-1.523-3.277-3.414-4.559-5.156-3.613-4.902-6.805-10.27-9.711-15.855-1.391-2.668-2.598-5.609-3.77-8.324-.453-1.047-.445-2.633-1.387-3.172-1.281 1.988-3.172 3.598-4.164 5.945-1.582 3.754-1.789 8.336-2.375 13.082-.348.125-.195.039-.398.199-2.762-.668-3.73-3.508-4.758-5.949-2.594-6.164-3.078-16.09-.793-23.191.59-1.836 3.262-7.617 2.18-9.316-.516-1.691-2.219-2.672-3.172-3.965-1.18-1.598-2.355-3.703-3.172-5.551-2.125-4.805-3.113-10.203-5.352-15.062-1.07-2.324-2.875-4.676-4.359-6.738-1.645-2.289-3.484-3.977-4.758-6.742-.453-.984-1.066-2.559-.398-3.566.215-.684.516-.969 1.191-1.191 1.148-.887 4.352.297 5.547.793 3.18 1.32 5.832 2.578 8.527 4.363 1.289.855 2.598 2.512 4.16 2.973h1.785c2.789.641 5.914.195 8.523.988 4.609 1.402 8.738 3.582 12.488 5.949 11.422 7.215 20.766 17.48 27.156 29.734 1.027 1.973 1.473 3.852 2.379 5.945 1.824 4.219 4.125 8.559 5.941 12.688 1.816 4.113 3.582 8.27 6.148 11.695 1.348 1.801 6.551 2.766 8.918 3.766 1.66.699 4.379 1.43 5.949 2.379 3 1.809 5.906 3.965 8.723 5.945 1.402.992 5.73 3.168 5.945 4.957zm-88.605-75.52c-1.453-.027-2.48.156-3.566.395v.199h.195c.695 1.422 1.918 2.34 2.777 3.566l1.98 4.164.199-.195c1.227-.867 1.789-2.25 1.781-4.363-.492-.52-.562-1.164-.992-1.785-.562-.824-1.66-1.289-2.375-1.98zm0 0"/>
  </symbol>
  <symbol xmlns="http://www.w3.org/2000/svg" viewBox="0 0 24 24" id="nestjs">
<title>NestJS</title><path fill="#E0234E" d="M14.131.047c-.173 0-.334.037-.483.087.316.21.49.49.576.806.007.043.019.074.025.117a.681.681 0 0 1 .013.112c.024.545-.143.614-.26.936-.18.415-.13.861.086 1.22a.74.74 0 0 0 .074.137c-.235-1.568 1.073-1.803 1.314-2.293.019-.428-.334-.713-.613-.911a1.37 1.37 0 0 0-.732-.21zM16.102.4c-.024.143-.006.106-.012.18-.006.05-.006.112-.012.161-.013.05-.025.1-.044.149-.012.05-.03.1-.05.149l-.067.142c-.02.025-.031.05-.05.075l-.037.055a2.152 2.152 0 0 1-.093.124c-.037.038-.068.081-.112.112v.006c-.037.031-.074.068-.118.1-.13.099-.278.173-.415.266-.043.03-.087.056-.124.093a.906.906 0 0 0-.118.099c-.043.037-.074.074-.111.118-.031.037-.068.08-.093.124a1.582 1.582 0 0 0-.087.13c-.025.05-.043.093-.068.142-.019.05-.037.093-.05.143a2.007 2.007 0 0 0-.043.155c-.006.025-.006.056-.012.08-.007.025-.007.05-.013.075 0 .05-.006.105-.006.155 0 .037 0 .074.006.111 0 .05.006.1.019.155.006.05.018.1.03.15.02.049.032.098.05.148.013.03.031.062.044.087l-1.426-.552c-.241-.068-.477-.13-.719-.186l-.39-.093c-.372-.074-.75-.13-1.128-.167-.013 0-.019-.006-.031-.006A11.082 11.082 0 0 0 8.9 2.855c-.378.025-.756.074-1.134.136a12.45 12.45 0 0 0-.837.174l-.279.074c-.092.037-.18.08-.266.118l-.205.093c-.012.006-.024.006-.03.012-.063.031-.118.056-.174.087a2.738 2.738 0 0 0-.236.118c-.043.018-.086.043-.124.062a.559.559 0 0 1-.055.03c-.056.032-.112.063-.162.094a1.56 1.56 0 0 0-.148.093c-.044.03-.087.055-.124.086-.006.007-.013.007-.019.013-.037.025-.08.056-.118.087l-.012.012-.093.074c-.012.007-.025.019-.037.025-.031.025-.062.056-.093.08-.006.013-.019.02-.025.025-.037.038-.074.069-.111.106-.007 0-.007.006-.013.012a1.742 1.742 0 0 0-.111.106c-.007.006-.007.012-.013.012a1.454 1.454 0 0 0-.093.1c-.012.012-.03.024-.043.036a1.374 1.374 0 0 1-.106.112c-.006.012-.018.019-.024.03-.05.05-.093.1-.143.15l-.018.018c-.1.106-.205.211-.317.304-.111.1-.229.192-.347.273a3.777 3.777 0 0 1-.762.421c-.13.056-.267.106-.403.149-.26.056-.527.161-.756.18-.05 0-.105.012-.155.018l-.155.037-.149.056c-.05.019-.099.044-.148.068-.044.031-.093.056-.137.087a1.011 1.011 0 0 0-.124.106c-.043.03-.087.074-.124.111-.037.043-.074.08-.105.124-.031.05-.068.093-.093.143a1.092 1.092 0 0 0-.087.142c-.025.056-.05.106-.068.161-.019.05-.037.106-.056.161-.012.05-.025.1-.03.15 0 .005-.007.012-.007.018-.012.056-.012.13-.019.167C.006 7.95 0 7.986 0 8.03a.657.657 0 0 0 .074.31v.006c.019.037.044.075.069.112.024.037.05.074.08.111.031.031.068.069.106.1a.906.906 0 0 0 .117.099c.149.13.186.173.378.272.031.019.062.031.1.05.006 0 .012.006.018.006 0 .013 0 .019.006.031a1.272 1.272 0 0 0 .08.298c.02.037.032.074.05.111.007.013.013.025.02.031.024.05.049.093.073.137l.093.13c.031.037.069.08.106.118.037.037.074.068.118.105 0 0 .006.006.012.006.037.031.074.062.112.087a.986.986 0 0 0 .136.08c.043.025.093.05.142.069a.73.73 0 0 0 .124.043c.007.006.013.006.025.012.025.007.056.013.08.019-.018.335-.024.65.026.762.055.124.328-.254.6-.688-.036.428-.061.93 0 1.079.069.155.44-.329.763-.862 4.395-1.016 8.405 2.02 8.826 6.31-.08-.67-.905-1.041-1.283-.948-.186.458-.502 1.047-1.01 1.413.043-.41.025-.83-.062-1.24a4.009 4.009 0 0 1-.769 1.562c-.588.043-1.177-.242-1.487-.67-.025-.018-.031-.055-.05-.08-.018-.043-.037-.087-.05-.13a.515.515 0 0 1-.037-.13c-.006-.044-.006-.087-.006-.137v-.093a.992.992 0 0 1 .031-.13c.013-.043.025-.086.044-.13.024-.043.043-.087.074-.13.105-.298.105-.54-.087-.682a.706.706 0 0 0-.118-.062c-.024-.006-.055-.018-.08-.025l-.05-.018a.847.847 0 0 0-.13-.031.472.472 0 0 0-.13-.019 1.01 1.01 0 0 0-.136-.012c-.031 0-.062.006-.093.006a.484.484 0 0 0-.137.019c-.043.006-.086.012-.13.024a1.068 1.068 0 0 0-.13.044c-.043.018-.08.037-.124.056-.037.018-.074.043-.118.062-1.444.942-.582 3.148.403 3.787-.372.068-.75.148-.855.229l-.013.012c.267.161.546.298.837.416.397.13.818.247 1.004.297v.006a5.996 5.996 0 0 0 1.562.112c2.746-.192 4.996-2.281 5.405-5.033l.037.161c.019.112.043.23.056.347v.006c.012.056.018.112.025.162v.024c.006.056.012.112.012.162.006.068.012.136.012.204v.1c0 .03.007.067.007.098 0 .038-.007.075-.007.112v.087c0 .043-.006.08-.006.124 0 .025 0 .05-.006.08 0 .044-.006.087-.006.137-.006.018-.006.037-.006.055l-.02.143c0 .019 0 .037-.005.056-.007.062-.019.118-.025.18v.012l-.037.174v.018l-.037.167c0 .007-.007.02-.007.025a1.663 1.663 0 0 1-.043.168v.018c-.019.062-.037.118-.05.174-.006.006-.006.012-.006.012l-.056.186c-.024.062-.043.118-.068.18-.025.062-.043.124-.068.18-.025.062-.05.117-.074.18h-.007c-.024.055-.05.117-.08.173a.302.302 0 0 1-.019.043c-.006.006-.006.013-.012.019a5.867 5.867 0 0 1-1.742 2.082c-.05.031-.099.069-.149.106-.012.012-.03.018-.043.03a2.603 2.603 0 0 1-.136.094l.018.037h.007l.26-.037h.006c.161-.025.322-.056.483-.087.044-.006.093-.019.137-.031l.087-.019c.043-.006.086-.018.13-.024.037-.013.074-.02.111-.031.62-.15 1.221-.354 1.798-.595a9.926 9.926 0 0 1-3.85 3.142c.714-.05 1.426-.167 2.114-.366a9.903 9.903 0 0 0 5.857-4.68 9.893 9.893 0 0 1-1.667 3.986 9.758 9.758 0 0 0 1.655-1.376 9.824 9.824 0 0 0 2.61-5.268c.21.98.272 1.99.18 2.987 4.474-6.241.371-12.712-1.346-14.416-.006-.013-.012-.019-.012-.031-.006.006-.006.006-.006.012 0-.006 0-.006-.007-.012 0 .074-.006.148-.012.223a8.34 8.34 0 0 1-.062.415c-.03.136-.068.273-.105.41-.044.13-.093.266-.15.396a5.322 5.322 0 0 1-.185.378 4.735 4.735 0 0 1-.477.688c-.093.111-.192.21-.292.31a3.994 3.994 0 0 1-.18.155l-.142.124a3.459 3.459 0 0 1-.347.241 4.295 4.295 0 0 1-.366.211c-.13.062-.26.118-.39.174a4.364 4.364 0 0 1-.818.223c-.143.025-.285.037-.422.05a4.914 4.914 0 0 1-.297.012 4.66 4.66 0 0 1-.422-.025 3.137 3.137 0 0 1-.421-.062 3.136 3.136 0 0 1-.415-.105h-.007c.137-.013.273-.025.41-.05a4.493 4.493 0 0 0 .818-.223c.136-.05.266-.112.39-.174.13-.062.248-.13.372-.204.118-.08.235-.161.347-.248.112-.087.217-.18.316-.279.105-.093.198-.198.291-.304.093-.111.18-.223.26-.334.013-.019.026-.044.038-.062.062-.1.124-.199.18-.298a4.272 4.272 0 0 0 .334-.775c.044-.13.075-.266.106-.403.025-.142.05-.278.062-.415.012-.142.025-.285.025-.421 0-.1-.007-.199-.013-.298a6.726 6.726 0 0 0-.05-.415 4.493 4.493 0 0 0-.092-.415c-.044-.13-.087-.267-.137-.397-.05-.13-.111-.26-.173-.384-.069-.124-.137-.248-.211-.366a6.843 6.843 0 0 0-.248-.34c-.093-.106-.186-.212-.285-.317a3.878 3.878 0 0 0-.161-.155c-.28-.217-.57-.421-.862-.607a1.154 1.154 0 0 0-.124-.062 2.415 2.415 0 0 0-.589-.26Z"/>
  </symbol>
  <symbol xmlns="http://www.w3.org/2000/svg" viewBox="0 0 128 128" id="nextjs">
<circle cx="64" cy="64" r="64" fill="#000"/><path fill="#fff" d="M106.317 112.014 49.167 38.4H38.4v51.179h8.614v-40.24l52.54 67.884a64.216 64.216 0 0 0 6.763-5.209z"/><path fill="#fff" d="M81.778 38.4h8.533v51.2h-8.533z"/>
  </symbol>
  <symbol xmlns="http://www.w3.org/2000/svg" viewBox="0 0 24 24" id="nodejs">
<title>Node.js</title><path fill="#339933" d="M11.998,24c-0.321,0-0.641-0.084-0.922-0.247l-2.936-1.737c-0.438-0.245-0.224-0.332-0.08-0.383 c0.585-0.203,0.703-0.25,1.328-0.604c0.065-0.037,0.151-0.023,0.218,0.017l2.256,1.339c0.082,0.045,0.197,0.045,0.272,0l8.795-5.076 c0.082-0.047,0.134-0.141,0.134-0.238V6.921c0-0.099-0.053-0.192-0.137-0.242l-8.791-5.072c-0.081-0.047-0.189-0.047-0.271,0 L3.075,6.68C2.99,6.729,2.936,6.825,2.936,6.921v10.15c0,0.097,0.054,0.189,0.139,0.235l2.409,1.392 c1.307,0.654,2.108-0.116,2.108-0.89V7.787c0-0.142,0.114-0.253,0.256-0.253h1.115c0.139,0,0.255,0.112,0.255,0.253v10.021 c0,1.745-0.95,2.745-2.604,2.745c-0.508,0-0.909,0-2.026-0.551L2.28,18.675c-0.57-0.329-0.922-0.945-0.922-1.604V6.921 c0-0.659,0.353-1.275,0.922-1.603l8.795-5.082c0.557-0.315,1.296-0.315,1.848,0l8.794,5.082c0.57,0.329,0.924,0.944,0.924,1.603 v10.15c0,0.659-0.354,1.273-0.924,1.604l-8.794,5.078C12.643,23.916,12.324,24,11.998,24z M19.099,13.993 c0-1.9-1.284-2.406-3.987-2.763c-2.731-0.361-3.009-0.548-3.009-1.187c0-0.528,0.235-1.233,2.258-1.233 c1.807,0,2.473,0.389,2.747,1.607c0.024,0.115,0.129,0.199,0.247,0.199h1.141c0.071,0,0.138-0.031,0.186-0.081 c0.048-0.054,0.074-0.123,0.067-0.196c-0.177-2.098-1.571-3.076-4.388-3.076c-2.508,0-4.004,1.058-4.004,2.833 c0,1.925,1.488,2.457,3.895,2.695c2.88,0.282,3.103,0.703,3.103,1.269c0,0.983-0.789,1.402-2.642,1.402 c-2.327,0-2.839-0.584-3.011-1.742c-0.02-0.124-0.126-0.215-0.253-0.215h-1.137c-0.141,0-0.254,0.112-0.254,0.253 c0,1.482,0.806,3.248,4.655,3.248C17.501,17.007,19.099,15.91,19.099,13.993z"/>
  </symbol>
  <symbol xmlns="http://www.w3.org/2000/svg" viewBox="0 0 128 128" id="nuxt2">
<path d="M39.267 108.97l-.284-.567c-.567-1.135-.567-2.27-.283-3.689H8.059L53.454 24.14l19.009 34.33 6.241-4.54L59.695 19.6c-.283-.567-2.553-3.971-6.241-3.971-1.703 0-4.256.567-6.242 4.255L1.25 101.31c-.284.852-2.27 4.54-.568 7.66 1.135 1.703 2.838 3.405 6.81 3.405h38.585c-3.972 0-5.958-1.702-6.81-3.404z" fill="#00c58e"/><path d="M126.65 101.59L89.767 35.201c-.567-.567-2.553-4.256-6.242-4.256-1.702 0-4.255.851-6.241 4.256l-4.823 7.944v15.321l11.065-19.009 36.599 65.254h-13.902a6.525 6.525 0 01-.568 3.972l-.284.284c-1.702 3.12-5.958 3.404-6.525 3.404h21.562c.851 0 4.823-.283 6.809-3.404.851-1.419 1.419-3.972-.567-7.377z" fill="#108775"/><path d="M106.51 108.97v-.284l.284-.567c.283-1.135.567-2.27.283-3.405l-1.134-3.404-28.938-50.501-4.256-7.66h-.284l-4.256 7.66-28.938 50.5-1.134 3.405a6.81 6.81 0 00.567 4.256c1.135 1.702 2.837 3.405 6.809 3.405h53.906c.851 0 5.107-.284 7.093-3.405zM72.464 58.469l26.386 46.245H46.079z" fill="#2f495e"/>
  </symbol>
  <symbol xmlns="http://www.w3.org/2000/svg" viewBox="0 0 128 128" id="nuxt3">
<path d="M39.267 108.97l-.284-.567c-.567-1.135-.567-2.27-.283-3.689H8.059L53.454 24.14l19.009 34.33 6.241-4.54L59.695 19.6c-.283-.567-2.553-3.971-6.241-3.971-1.703 0-4.256.567-6.242 4.255L1.25 101.31c-.284.852-2.27 4.54-.568 7.66 1.135 1.703 2.838 3.405 6.81 3.405h38.585c-3.972 0-5.958-1.702-6.81-3.404z" fill="#00c58e"/><path d="M126.65 101.59L89.767 35.201c-.567-.567-2.553-4.256-6.242-4.256-1.702 0-4.255.851-6.241 4.256l-4.823 7.944v15.321l11.065-19.009 36.599 65.254h-13.902a6.525 6.525 0 01-.568 3.972l-.284.284c-1.702 3.12-5.958 3.404-6.525 3.404h21.562c.851 0 4.823-.283 6.809-3.404.851-1.419 1.419-3.972-.567-7.377z" fill="#108775"/><path d="M106.51 108.97v-.284l.284-.567c.283-1.135.567-2.27.283-3.405l-1.134-3.404-28.938-50.501-4.256-7.66h-.284l-4.256 7.66-28.938 50.5-1.134 3.405a6.81 6.81 0 00.567 4.256c1.135 1.702 2.837 3.405 6.809 3.405h53.906c.851 0 5.107-.284 7.093-3.405zM72.464 58.469l26.386 46.245H46.079z" fill="#2f495e"/>
  </symbol>
  <symbol xmlns="http://www.w3.org/2000/svg" viewBox="0 0 128 128" id="postgres">
<path d="M93.809 92.112c.785-6.533.55-7.492 5.416-6.433l1.235.108c3.742.17 8.637-.602 11.513-1.938 6.191-2.873 9.861-7.668 3.758-6.409-13.924 2.873-14.881-1.842-14.881-1.842 14.703-21.815 20.849-49.508 15.543-56.287-14.47-18.489-39.517-9.746-39.936-9.52l-.134.025c-2.751-.571-5.83-.912-9.289-.968-6.301-.104-11.082 1.652-14.709 4.402 0 0-44.683-18.409-42.604 23.151.442 8.841 12.672 66.898 27.26 49.362 5.332-6.412 10.484-11.834 10.484-11.834 2.558 1.699 5.622 2.567 8.834 2.255l.249-.212c-.078.796-.044 1.575.099 2.497-3.757 4.199-2.653 4.936-10.166 6.482-7.602 1.566-3.136 4.355-.221 5.084 3.535.884 11.712 2.136 17.238-5.598l-.22.882c1.474 1.18 1.375 8.477 1.583 13.69.209 5.214.558 10.079 1.621 12.948 1.063 2.868 2.317 10.256 12.191 8.14 8.252-1.764 14.561-4.309 15.136-27.985"/><path d="M75.458 125.256c-4.367 0-7.211-1.689-8.938-3.32-2.607-2.46-3.641-5.629-4.259-7.522l-.267-.79c-1.244-3.358-1.666-8.193-1.916-14.419-.038-.935-.064-1.898-.093-2.919-.021-.747-.047-1.684-.085-2.664a18.8 18.8 0 01-4.962 1.568c-3.079.526-6.389.356-9.84-.507-2.435-.609-4.965-1.871-6.407-3.82-4.203 3.681-8.212 3.182-10.396 2.453-3.853-1.285-7.301-4.896-10.542-11.037-2.309-4.375-4.542-10.075-6.638-16.943-3.65-11.96-5.969-24.557-6.175-28.693C4.292 23.698 7.777 14.44 15.296 9.129 27.157.751 45.128 5.678 51.68 7.915c4.402-2.653 9.581-3.944 15.433-3.851 3.143.051 6.136.327 8.916.823 2.9-.912 8.628-2.221 15.185-2.139 12.081.144 22.092 4.852 28.949 13.615 4.894 6.252 2.474 19.381.597 26.651-2.642 10.226-7.271 21.102-12.957 30.57 1.544.011 3.781-.174 6.961-.831 6.274-1.295 8.109 2.069 8.607 3.575 1.995 6.042-6.677 10.608-9.382 11.864-3.466 1.609-9.117 2.589-13.745 2.377l-.202-.013-1.216-.107-.12 1.014-.116.991c-.311 11.999-2.025 19.598-5.552 24.619-3.697 5.264-8.835 6.739-13.361 7.709-1.544.33-2.947.474-4.219.474zm-9.19-43.671c2.819 2.256 3.066 6.501 3.287 14.434.028.99.054 1.927.089 2.802.106 2.65.355 8.855 1.327 11.477.137.371.26.747.39 1.146 1.083 3.316 1.626 4.979 6.309 3.978 3.931-.843 5.952-1.599 7.534-3.851 2.299-3.274 3.585-9.86 3.821-19.575l4.783.116-4.75-.57.14-1.186c.455-3.91.783-6.734 3.396-8.602 2.097-1.498 4.486-1.353 6.389-1.01-2.091-1.58-2.669-3.433-2.823-4.193l-.399-1.965 1.121-1.663c6.457-9.58 11.781-21.354 14.609-32.304 2.906-11.251 2.02-17.226 1.134-18.356-11.729-14.987-32.068-8.799-34.192-8.097l-.359.194-1.8.335-.922-.191c-2.542-.528-5.366-.82-8.393-.869-4.756-.08-8.593 1.044-11.739 3.431l-2.183 1.655-2.533-1.043c-5.412-2.213-21.308-6.662-29.696-.721-4.656 3.298-6.777 9.76-6.305 19.207.156 3.119 2.275 14.926 5.771 26.377 4.831 15.825 9.221 21.082 11.054 21.693.32.108 1.15-.537 1.976-1.529a270.708 270.708 0 0110.694-12.07l2.77-2.915 3.349 2.225c1.35.897 2.839 1.406 4.368 1.502l7.987-6.812-1.157 11.808c-.026.265-.039.626.065 1.296l.348 2.238-1.51 1.688-.174.196 4.388 2.025 1.836-2.301z"/><path fill="#336791" d="M115.731 77.44c-13.925 2.873-14.882-1.842-14.882-1.842 14.703-21.816 20.849-49.51 15.545-56.287C101.924.823 76.875 9.566 76.457 9.793l-.135.024c-2.751-.571-5.83-.911-9.291-.967-6.301-.103-11.08 1.652-14.707 4.402 0 0-44.684-18.408-42.606 23.151.442 8.842 12.672 66.899 27.26 49.363 5.332-6.412 10.483-11.834 10.483-11.834 2.559 1.699 5.622 2.567 8.833 2.255l.25-.212c-.078.796-.042 1.575.1 2.497-3.758 4.199-2.654 4.936-10.167 6.482-7.602 1.566-3.136 4.355-.22 5.084 3.534.884 11.712 2.136 17.237-5.598l-.221.882c1.473 1.18 2.507 7.672 2.334 13.557-.174 5.885-.29 9.926.871 13.082 1.16 3.156 2.316 10.256 12.192 8.14 8.252-1.768 12.528-6.351 13.124-13.995.422-5.435 1.377-4.631 1.438-9.49l.767-2.3c.884-7.367.14-9.743 5.225-8.638l1.235.108c3.742.17 8.639-.602 11.514-1.938 6.19-2.871 9.861-7.667 3.758-6.408z"/><path fill="#fff" d="M75.957 122.307c-8.232 0-10.84-6.519-11.907-9.185-1.562-3.907-1.899-19.069-1.551-31.503a1.59 1.59 0 011.64-1.55 1.594 1.594 0 011.55 1.639c-.401 14.341.168 27.337 1.324 30.229 1.804 4.509 4.54 8.453 12.275 6.796 7.343-1.575 10.093-4.359 11.318-11.46.94-5.449 2.799-20.951 3.028-24.01a1.593 1.593 0 011.71-1.472 1.597 1.597 0 011.472 1.71c-.239 3.185-2.089 18.657-3.065 24.315-1.446 8.387-5.185 12.191-13.794 14.037-1.463.313-2.792.453-4 .454zM31.321 90.466a6.71 6.71 0 01-2.116-.35c-5.347-1.784-10.44-10.492-15.138-25.885-3.576-11.717-5.842-23.947-6.041-27.922-.589-11.784 2.445-20.121 9.02-24.778 13.007-9.216 34.888-.44 35.813-.062a1.596 1.596 0 01-1.207 2.955c-.211-.086-21.193-8.492-32.768-.285-5.622 3.986-8.203 11.392-7.672 22.011.167 3.349 2.284 15.285 5.906 27.149 4.194 13.742 8.967 22.413 13.096 23.79.648.216 2.62.873 5.439-2.517A245.272 245.272 0 0145.88 73.046a1.596 1.596 0 012.304 2.208c-.048.05-4.847 5.067-10.077 11.359-2.477 2.979-4.851 3.853-6.786 3.853zm69.429-13.445a1.596 1.596 0 01-1.322-2.487c14.863-22.055 20.08-48.704 15.612-54.414-5.624-7.186-13.565-10.939-23.604-11.156-7.433-.16-13.341 1.738-14.307 2.069l-.243.099c-.971.305-1.716-.227-1.997-.849a1.6 1.6 0 01.631-2.025c.046-.027.192-.089.429-.176l-.021.006.021-.007c1.641-.601 7.639-2.4 15.068-2.315 11.108.118 20.284 4.401 26.534 12.388 2.957 3.779 2.964 12.485.019 23.887-3.002 11.625-8.651 24.118-15.497 34.277-.306.457-.81.703-1.323.703zm.76 10.21c-2.538 0-4.813-.358-6.175-1.174-1.4-.839-1.667-1.979-1.702-2.584-.382-6.71 3.32-7.878 5.208-8.411-.263-.398-.637-.866-1.024-1.349-1.101-1.376-2.609-3.26-3.771-6.078-.182-.44-.752-1.463-1.412-2.648-3.579-6.418-11.026-19.773-6.242-26.612 2.214-3.165 6.623-4.411 13.119-3.716C97.6 28.837 88.5 10.625 66.907 10.271c-6.494-.108-11.82 1.889-15.822 5.93-8.96 9.049-8.636 25.422-8.631 25.586a1.595 1.595 0 11-3.19.084c-.02-.727-.354-17.909 9.554-27.916C53.455 9.272 59.559 6.96 66.96 7.081c13.814.227 22.706 7.25 27.732 13.101 5.479 6.377 8.165 13.411 8.386 15.759.165 1.746-1.088 2.095-1.341 2.147l-.576.013c-6.375-1.021-10.465-.312-12.156 2.104-3.639 5.201 3.406 17.834 6.414 23.229.768 1.376 1.322 2.371 1.576 2.985.988 2.396 2.277 4.006 3.312 5.3.911 1.138 1.7 2.125 1.982 3.283.131.23 1.99 2.98 13.021.703 2.765-.57 4.423-.083 4.93 1.45.997 3.015-4.597 6.532-7.694 7.97-2.775 1.29-7.204 2.106-11.036 2.106zm-4.696-4.021c.35.353 2.101.962 5.727.806 3.224-.138 6.624-.839 8.664-1.786 2.609-1.212 4.351-2.567 5.253-3.492l-.5.092c-7.053 1.456-12.042 1.262-14.828-.577a6.162 6.162 0 01-.54-.401c-.302.119-.581.197-.78.253-1.58.443-3.214.902-2.996 5.105zm-45.562 8.915c-1.752 0-3.596-.239-5.479-.71-1.951-.488-5.24-1.957-5.19-4.37.057-2.707 3.994-3.519 5.476-3.824 5.354-1.103 5.703-1.545 7.376-3.67.488-.619 1.095-1.39 1.923-2.314 1.229-1.376 2.572-2.073 3.992-2.073.989 0 1.8.335 2.336.558 1.708.708 3.133 2.42 3.719 4.467.529 1.847.276 3.625-.71 5.006-3.237 4.533-7.886 6.93-13.443 6.93zm-7.222-4.943c.481.372 1.445.869 2.518 1.137 1.631.408 3.213.615 4.705.615 4.546 0 8.196-1.882 10.847-5.594.553-.774.387-1.757.239-2.274-.31-1.083-1.08-2.068-1.873-2.397-.43-.178-.787-.314-1.115-.314-.176 0-.712 0-1.614 1.009a41.146 41.146 0 00-1.794 2.162c-2.084 2.646-3.039 3.544-9.239 4.821-1.513.31-2.289.626-2.674.835zm12.269-7.36a1.596 1.596 0 01-1.575-1.354 8.218 8.218 0 01-.08-.799c-4.064-.076-7.985-1.82-10.962-4.926-3.764-3.927-5.477-9.368-4.699-14.927.845-6.037.529-11.366.359-14.229-.047-.796-.081-1.371-.079-1.769.003-.505.013-1.844 4.489-4.113 1.592-.807 4.784-2.215 8.271-2.576 5.777-.597 9.585 1.976 10.725 7.246 3.077 14.228.244 20.521-1.825 25.117-.385.856-.749 1.664-1.04 2.447l-.257.69c-1.093 2.931-2.038 5.463-1.748 7.354a1.595 1.595 0 01-1.335 1.819l-.244.02zM42.464 42.26l.062 1.139c.176 2.974.504 8.508-.384 14.86-.641 4.585.759 9.06 3.843 12.276 2.437 2.542 5.644 3.945 8.94 3.945h.068c.369-1.555.982-3.197 1.642-4.966l.255-.686c.329-.884.714-1.74 1.122-2.646 1.991-4.424 4.47-9.931 1.615-23.132-.565-2.615-1.936-4.128-4.189-4.627-4.628-1.022-11.525 2.459-12.974 3.837zm9.63-.677c-.08.564 1.033 2.07 2.485 2.271 1.449.203 2.689-.975 2.768-1.539.079-.564-1.033-1.186-2.485-1.388-1.451-.202-2.691.092-2.768.656zm2.818 2.826l-.407-.028c-.9-.125-1.81-.692-2.433-1.518-.219-.29-.576-.852-.505-1.354.101-.736.999-1.177 2.4-1.177.313 0 .639.023.967.069.766.106 1.477.327 2.002.62.91.508.977 1.075.936 1.368-.112.813-1.405 2.02-2.96 2.02zm-2.289-2.732c.045.348.907 1.496 2.029 1.651l.261.018c1.036 0 1.81-.815 1.901-1.082-.096-.182-.762-.634-2.025-.81a5.823 5.823 0 00-.821-.059c-.812 0-1.243.183-1.345.282zm43.605-1.245c.079.564-1.033 2.07-2.484 2.272-1.45.202-2.691-.975-2.771-1.539-.076-.564 1.036-1.187 2.486-1.388 1.45-.203 2.689.092 2.769.655zm-2.819 2.56c-1.396 0-2.601-1.086-2.7-1.791-.115-.846 1.278-1.489 2.712-1.688.316-.044.629-.066.93-.066 1.238 0 2.058.363 2.14.949.053.379-.238.964-.739 1.492-.331.347-1.026.948-1.973 1.079l-.37.025zm.943-3.013c-.276 0-.564.021-.856.061-1.441.201-2.301.779-2.259 1.089.048.341.968 1.332 2.173 1.332l.297-.021c.787-.109 1.378-.623 1.66-.919.443-.465.619-.903.598-1.052-.028-.198-.56-.49-1.613-.49zm3.965 32.843a1.594 1.594 0 01-1.324-2.483c3.398-5.075 2.776-10.25 2.175-15.255-.257-2.132-.521-4.337-.453-6.453.07-2.177.347-3.973.614-5.71.317-2.058.617-4.002.493-6.31a1.595 1.595 0 113.186-.172c.142 2.638-.197 4.838-.525 6.967-.253 1.643-.515 3.342-.578 5.327-.061 1.874.178 3.864.431 5.97.64 5.322 1.365 11.354-2.691 17.411a1.596 1.596 0 01-1.328.708z"/>
  </symbol>
  <symbol xmlns="http://www.w3.org/2000/svg" viewBox="0 0 32 32" id="react">
<path d="M18.6789 15.9759C18.6789 14.5415 17.4796 13.3785 16 13.3785C14.5206 13.3785 13.3211 14.5415 13.3211 15.9759C13.3211 17.4105 14.5206 18.5734 16 18.5734C17.4796 18.5734 18.6789 17.4105 18.6789 15.9759Z" fill="#53C1DE"/>
<path fill-rule="evenodd" clip-rule="evenodd" d="M24.7004 11.1537C25.2661 8.92478 25.9772 4.79148 23.4704 3.39016C20.9753 1.99495 17.7284 4.66843 16.0139 6.27318C14.3044 4.68442 10.9663 2.02237 8.46163 3.42814C5.96751 4.82803 6.73664 8.8928 7.3149 11.1357C4.98831 11.7764 1 13.1564 1 15.9759C1 18.7874 4.98416 20.2888 7.29698 20.9289C6.71658 23.1842 5.98596 27.1909 8.48327 28.5877C10.9973 29.9932 14.325 27.3945 16.0554 25.7722C17.7809 27.3864 20.9966 30.0021 23.4922 28.6014C25.9956 27.1963 25.3436 23.1184 24.7653 20.8625C27.0073 20.221 31 18.7523 31 15.9759C31 13.1835 26.9903 11.7923 24.7004 11.1537ZM24.4162 19.667C24.0365 18.5016 23.524 17.2623 22.8971 15.9821C23.4955 14.7321 23.9881 13.5088 24.3572 12.3509C26.0359 12.8228 29.7185 13.9013 29.7185 15.9759C29.7185 18.07 26.1846 19.1587 24.4162 19.667ZM22.85 27.526C20.988 28.571 18.2221 26.0696 16.9478 24.8809C17.7932 23.9844 18.638 22.9422 19.4625 21.7849C20.9129 21.6602 22.283 21.4562 23.5256 21.1777C23.9326 22.7734 24.7202 26.4763 22.85 27.526ZM9.12362 27.5111C7.26143 26.47 8.11258 22.8946 8.53957 21.2333C9.76834 21.4969 11.1286 21.6865 12.5824 21.8008C13.4123 22.9332 14.2816 23.9741 15.1576 24.8857C14.0753 25.9008 10.9945 28.557 9.12362 27.5111ZM2.28149 15.9759C2.28149 13.874 5.94207 12.8033 7.65904 12.3326C8.03451 13.5165 8.52695 14.7544 9.12123 16.0062C8.51925 17.2766 8.01977 18.5341 7.64085 19.732C6.00369 19.2776 2.28149 18.0791 2.28149 15.9759ZM9.1037 4.50354C10.9735 3.45416 13.8747 6.00983 15.1159 7.16013C14.2444 8.06754 13.3831 9.1006 12.5603 10.2265C11.1494 10.3533 9.79875 10.5569 8.55709 10.8297C8.09125 9.02071 7.23592 5.55179 9.1037 4.50354ZM20.3793 11.5771C21.3365 11.6942 22.2536 11.85 23.1147 12.0406C22.8562 12.844 22.534 13.6841 22.1545 14.5453C21.6044 13.5333 21.0139 12.5416 20.3793 11.5771ZM16.0143 8.0481C16.6054 8.66897 17.1974 9.3623 17.7798 10.1145C16.5985 10.0603 15.4153 10.0601 14.234 10.1137C14.8169 9.36848 15.414 8.67618 16.0143 8.0481ZM9.8565 14.5444C9.48329 13.6862 9.16398 12.8424 8.90322 12.0275C9.75918 11.8418 10.672 11.69 11.623 11.5748C10.9866 12.5372 10.3971 13.5285 9.8565 14.5444ZM11.6503 20.4657C10.6679 20.3594 9.74126 20.2153 8.88556 20.0347C9.15044 19.2055 9.47678 18.3435 9.85796 17.4668C10.406 18.4933 11.0045 19.4942 11.6503 20.4657ZM16.0498 23.9915C15.4424 23.356 14.8365 22.6531 14.2448 21.8971C15.4328 21.9423 16.6231 21.9424 17.811 21.891C17.2268 22.6608 16.6369 23.3647 16.0498 23.9915ZM22.1667 17.4222C22.5677 18.3084 22.9057 19.1657 23.1742 19.9809C22.3043 20.1734 21.3652 20.3284 20.3757 20.4435C21.015 19.4607 21.6149 18.4536 22.1667 17.4222ZM18.7473 20.5941C16.9301 20.72 15.1016 20.7186 13.2838 20.6044C12.2509 19.1415 11.3314 17.603 10.5377 16.0058C11.3276 14.4119 12.2404 12.8764 13.2684 11.4158C15.0875 11.2825 16.9178 11.2821 18.7369 11.4166C19.7561 12.8771 20.6675 14.4086 21.4757 15.9881C20.6771 17.5812 19.7595 19.1198 18.7473 20.5941ZM22.8303 4.4666C24.7006 5.51254 23.8681 9.22726 23.4595 10.8426C22.2149 10.5641 20.8633 10.3569 19.4483 10.2281C18.6239 9.09004 17.7698 8.05518 16.9124 7.15949C18.1695 5.98441 20.9781 3.43089 22.8303 4.4666Z" fill="#53C1DE"/>
  </symbol>
  <symbol xmlns="http://www.w3.org/2000/svg" viewBox="0 0 128 128" id="vite">
<defs><linearGradient id="vite-a" x1="6" x2="235" y1="33" y2="344" gradientTransform="translate(0 .937) scale(.3122)" gradientUnits="userSpaceOnUse"><stop offset="0" stop-color="#41d1ff"/><stop offset="1" stop-color="#bd34fe"/></linearGradient><linearGradient id="vite-b" x1="194.651" x2="236.076" y1="8.818" y2="292.989" gradientTransform="translate(0 .937) scale(.3122)" gradientUnits="userSpaceOnUse"><stop offset="0" stop-color="#ffea83"/><stop offset=".083" stop-color="#ffdd35"/><stop offset="1" stop-color="#ffa800"/></linearGradient></defs><path fill="url(#vite-a)" d="M124.766 19.52 67.324 122.238c-1.187 2.121-4.234 2.133-5.437.024L3.305 19.532c-1.313-2.302.652-5.087 3.261-4.622L64.07 25.187a3.09 3.09 0 0 0 1.11 0l56.3-10.261c2.598-.473 4.575 2.289 3.286 4.594Zm0 0"/><path fill="url(#vite-b)" d="M91.46 1.43 48.954 9.758a1.56 1.56 0 0 0-1.258 1.437l-2.617 44.168a1.563 1.563 0 0 0 1.91 1.614l11.836-2.735a1.562 1.562 0 0 1 1.88 1.836l-3.517 17.219a1.562 1.562 0 0 0 1.985 1.805l7.308-2.223c1.133-.344 2.223.652 1.985 1.812l-5.59 27.047c-.348 1.692 1.902 2.614 2.84 1.164l.625-.968 34.64-69.13c.582-1.16-.421-2.48-1.69-2.234l-12.185 2.352a1.558 1.558 0 0 1-1.793-1.965l7.95-27.562A1.56 1.56 0 0 0 91.46 1.43Zm0 0"/>
  </symbol>
  <symbol xmlns="http://www.w3.org/2000/svg" viewBox="0 0 128 128" id="vue">
<path d="M0 8.934l49.854.158 14.167 24.47 14.432-24.47L128 8.935l-63.834 110.14zm126.98.637l-24.36.02-38.476 66.053L25.691 9.592.942 9.572l63.211 107.89zm-25.149-.008l-22.745.168-15.053 24.647L49.216 9.73l-22.794-.168 37.731 64.476zm-75.834-.17l23.002.009m-23.002-.01l23.002.01" fill="none"/><path d="M25.997 9.393l23.002.009L64.035 34.36 79.018 9.404 102 9.398 64.15 75.053z" fill="#35495e"/><path d="M.91 9.569l25.067-.172 38.15 65.659L101.98 9.401l25.11.026-62.966 108.06z" fill="#41b883"/>
  </symbol>
</svg>
