<svg width="20" height="25" fill="none" xmlns="http://www.w3.org/2000/svg"><path d="M9.71.534a1.375 1.375 0 011.04 1.643c-.078.342-.183.626-.336.863-2.161 3.336-1.813 5.537-.372 5.75 1.41.209 2.197-.692 1.97-2.79l-.134-1.245a1.345 1.345 0 012.078-1.265c.745.49 1.58 1.327 2.534 2.517 2.71 3.379 3.547 6.333 3.509 9.359-.071 5.636-4.273 9.634-10 9.634C4.25 25 0 20.978 0 15.347c.03-4.98 2.74-10.39 7.811-14.008.197-.14.456-.33.778-.568a1.37 1.37 0 011.12-.237zM7.63 4.022C3.96 7.197 2.024 11.462 2 15.353 2 19.848 5.33 23 10 23c4.647 0 7.942-3.135 7.999-7.66.032-2.593-.678-5.1-3.07-8.082a18.58 18.58 0 00-.894-1.042c.163 3.068-1.613 4.948-4.286 4.553-2.706-.4-3.582-3.252-2.118-6.747z" fill="#fff"/></svg>